<?xml version="1.0" standalone="no"?><!DOCTYPE svg PUBLIC "-//W3C//DTD SVG 1.1//EN" "http://www.w3.org/Graphics/SVG/1.1/DTD/svg11.dtd"><svg t="1646784431333" class="icon" viewBox="0 0 1024 1024" version="1.1" xmlns="http://www.w3.org/2000/svg" p-id="17459" xmlns:xlink="http://www.w3.org/1999/xlink" width="128" height="128"><defs><style type="text/css"></style></defs><path d="M504.3712 519.8336m-450.816 0a450.816 450.816 0 1 0 901.632 0 450.816 450.816 0 1 0-901.632 0Z" fill="#E9ECFF" p-id="17460"></path><path d="M676.3008 189.3376H332.4416c-31.744 0-57.4976 24.9344-57.4976 55.6544v544.3072c0 30.72 25.7536 55.6544 57.4976 55.6544h343.8592c31.744 0 57.4976-24.9344 57.4976-55.6544V244.9408c0-30.72-25.7536-55.6032-57.4976-55.6032z m-222.7712 45.3632h101.632a11.2128 11.2128 0 1 1 0 22.4256H453.5296a11.2128 11.2128 0 0 1-11.2128-11.2128c0.0512-6.2464 5.0688-11.2128 11.2128-11.2128z m50.8416 569.3952c-25.5488 0-46.2848-20.736-46.2848-46.2848s20.736-46.2848 46.2848-46.2848 46.2848 20.736 46.2848 46.2848-20.736 46.2848-46.2848 46.2848z m163.072-140.032c0 11.6736-10.24 21.1456-22.9376 21.1456H364.1856c-12.6464 0-22.9376-9.472-22.9376-21.1456V316.928c0-11.6736 10.24-21.1456 22.9376-21.1456h280.32c12.6464 0 22.9376 9.472 22.9376 21.1456v347.136z" fill="#6C6CEA" p-id="17461"></path><path d="M733.7984 542.6688V244.9408c0-30.72-25.7536-55.6544-57.4976-55.6544H332.4416c-31.744 0-57.4976 24.9344-57.4976 55.6544v544.3072c0 3.8912 0.4096 7.7312 1.2288 11.4176 18.944 2.5088 38.2976 3.84 57.9584 3.84 46.08 0 90.5216-7.168 132.1984-20.4288a45.91616 45.91616 0 0 1-8.192-26.2656c0-25.5488 20.736-46.2848 46.2848-46.2848 22.0672 0 40.448 15.4112 45.1072 36.096a436.48 436.48 0 0 0 84.1728-62.4128H364.1856c-12.6464 0-22.9376-9.472-22.9376-21.1456V316.928c0-11.6736 10.24-21.1456 22.9376-21.1456h280.32c12.6464 0 22.9376 9.472 22.9376 21.1456v332.4928a436.48512 436.48512 0 0 0 66.3552-106.752z m-178.6368-285.5936H453.5296a11.2128 11.2128 0 1 1 0-22.4256h101.5808c6.1952 0 11.2128 5.0176 11.2128 11.2128s-4.9664 11.2128-11.1616 11.2128z" fill="#757BF2" p-id="17462"></path><path d="M274.8928 244.9408v400.5888c22.7328-3.1232 44.9024-8.0384 66.3552-14.4896V316.928c0-11.6736 10.24-21.1456 22.9376-21.1456h278.784c5.0688-26.5728 7.7312-53.9648 7.7312-81.9712 0-8.2432-0.256-16.384-0.7168-24.4736H332.4416c-31.7952 0-57.5488 24.8832-57.5488 55.6032z m178.6368-10.24h101.5808a11.2128 11.2128 0 1 1 0 22.4256H453.5296a11.2128 11.2128 0 0 1-11.2128-11.2128c0.0512-6.2464 5.0688-11.2128 11.2128-11.2128z" fill="#8486F8" p-id="17463"></path><path d="M274.8928 244.9408v216.2176c23.2448-9.8304 45.4144-21.6064 66.3552-35.1232V316.928c0-11.6736 10.24-21.1456 22.9376-21.1456H471.552c8.0384-12.4928 15.5136-25.3952 22.272-38.7072h-40.2944a11.2128 11.2128 0 1 1 0-22.4256h50.8928c6.4512-14.6944 12.1856-29.8496 16.9984-45.3632H332.4416c-31.7952 0.0512-57.5488 24.9344-57.5488 55.6544z" fill="#8D92F8" p-id="17464"></path></svg>