<?xml version="1.0" standalone="no"?><!DOCTYPE svg PUBLIC "-//W3C//DTD SVG 1.1//EN" "http://www.w3.org/Graphics/SVG/1.1/DTD/svg11.dtd"><svg t="1646784218920" class="icon" viewBox="0 0 1024 1024" version="1.1" xmlns="http://www.w3.org/2000/svg" p-id="17145" xmlns:xlink="http://www.w3.org/1999/xlink" width="128" height="128"><defs><style type="text/css"></style></defs><path d="M508.8256 515.1232m-450.816 0a450.816 450.816 0 1 0 901.632 0 450.816 450.816 0 1 0-901.632 0Z" fill="#E9F4FF" p-id="17146"></path><path d="M720.384 271.4624h-70.4512v-11.4176c0-14.2848-11.9808-25.856-26.7776-25.856-14.7968 0-26.7776 11.5712-26.7776 25.856v11.4176h-177.152v-11.4176c0-14.2848-11.9808-25.856-26.7776-25.856s-26.7776 11.5712-26.7776 25.856v11.4176h-72.704c-40.0384 0-72.448 31.3344-72.448 69.9904v386.2528c0 38.656 32.4608 69.9904 72.448 69.9904h427.4176c40.0384 0 72.448-31.3344 72.448-69.9904V341.4528c0-38.656-32.4096-69.9904-72.448-69.9904z m-63.8464 274.9952l-170.1888 162.816a30.75072 30.75072 0 0 1-43.0592-0.512l-92.672-93.3376c-11.9808-12.032-11.8784-31.488 0.1536-43.4688 12.032-11.9808 31.488-11.8784 43.4688 0.1536l71.4752 71.8848 148.4288-141.9776a30.67904 30.67904 0 0 1 43.4176 0.9728c11.6736 12.288 11.2128 31.744-1.024 43.4688z m78.336-153.344c0 9.6768-8.1408 17.5104-18.1248 17.5104H296.6528c-10.0352 0-18.1248-7.8336-18.1248-17.5104v-48.64c0-9.6768 8.1408-17.5104 18.1248-17.5104h69.0688v15.2064c0 14.2848 11.9808 25.856 26.7776 25.856s26.7776-11.5712 26.7776-25.856v-15.2064h177.2032v15.2064c0 14.2848 11.9808 25.856 26.7776 25.856 14.7968 0 26.7776-11.5712 26.7776-25.856v-15.2064h66.816c10.0352 0 18.1248 7.8336 18.1248 17.5104v48.64z" fill="#2595E8" p-id="17147"></path><path d="M792.832 341.4528c0-38.656-32.4608-69.9904-72.448-69.9904h-70.4512v-11.4176c0-14.2848-11.9808-25.856-26.7776-25.856-14.7968 0-26.7776 11.5712-26.7776 25.856v11.4176h-177.152v-11.4176c0-14.2848-11.9808-25.856-26.7776-25.856s-26.7776 11.5712-26.7776 25.856v11.4176h-72.704c-40.0384 0-72.448 31.3344-72.448 69.9904v386.2528c0 38.656 32.4608 69.9904 72.448 69.9904h252.3648c110.4384-43.3664 199.5776-129.024 247.5008-237.056V341.4528z m-136.2944 205.0048l-170.1888 162.816a30.75072 30.75072 0 0 1-43.0592-0.512l-92.672-93.3376c-11.9808-12.032-11.8784-31.488 0.1536-43.4688 12.032-11.9808 31.488-11.8784 43.4688 0.1536l71.4752 71.8848 148.4288-141.9776a30.67904 30.67904 0 0 1 43.4176 0.9728c11.6736 12.288 11.2128 31.744-1.024 43.4688z m78.336-153.344c0 9.6768-8.1408 17.5104-18.1248 17.5104H296.6528c-10.0352 0-18.1248-7.8336-18.1248-17.5104v-48.64c0-9.6768 8.1408-17.5104 18.1248-17.5104h69.0688v15.2064c0 14.2848 11.9808 25.856 26.7776 25.856s26.7776-11.5712 26.7776-25.856v-15.2064h177.2032v15.2064c0 14.2848 11.9808 25.856 26.7776 25.856 14.7968 0 26.7776-11.5712 26.7776-25.856v-15.2064h66.816c10.0352 0 18.1248 7.8336 18.1248 17.5104v48.64z" fill="#3A9CED" p-id="17148"></path><path d="M257.3312 668.6208c44.3904 0 87.296-6.4512 127.7952-18.432l-34.56-34.7648c-11.9808-12.032-11.8784-31.488 0.1536-43.4688 12.032-11.9808 31.488-11.8784 43.4688 0.1536l53.9136 54.2208c94.976-44.4416 171.9296-120.9856 216.832-215.7056H296.6528c-10.0352 0-18.1248-7.8336-18.1248-17.5104v-48.64c0-9.6768 8.1408-17.5104 18.1248-17.5104h69.0688v15.2064c0 14.2848 11.9808 25.856 26.7776 25.856s26.7776-11.5712 26.7776-25.856v-15.2064h177.2032v15.2064c0 14.2848 11.9808 25.856 26.7776 25.856 14.7968 0 26.7776-11.5712 26.7776-25.856v-15.2064h44.9024c4.5056-18.0736 7.8848-36.608 10.1376-55.4496h-54.9888V260.096c0-14.2848-11.9808-25.856-26.7776-25.856-14.7968 0-26.7776 11.5712-26.7776 25.856v11.4176H419.2256V260.096c0-14.2848-11.9808-25.856-26.7776-25.856s-26.7776 11.5712-26.7776 25.856v11.4176h-72.704c-40.0384 0-72.448 31.3344-72.448 69.9904v325.6832c12.1344 0.9216 24.4224 1.4336 36.8128 1.4336z" fill="#59ADF8" p-id="17149"></path><path d="M425.1136 410.624H296.6528c-10.0352 0-18.1248-7.8336-18.1248-17.5104v-48.64c0-9.6768 8.1408-17.5104 18.1248-17.5104h69.0688v15.2064c0 14.2848 11.9808 25.856 26.7776 25.856s26.7776-11.5712 26.7776-25.856v-15.2064h86.784c13.056-17.5616 24.832-36.096 35.2256-55.4496H419.2256V260.096c0-14.2848-11.9808-25.856-26.7776-25.856s-26.7776 11.5712-26.7776 25.856v11.4176h-72.704c-40.0384 0-72.448 31.3344-72.448 69.9904v161.1264A449.47968 449.47968 0 0 0 425.1136 410.624z" fill="#6BC2FC" p-id="17150"></path></svg>