<?xml version="1.0" standalone="no"?><!DOCTYPE svg PUBLIC "-//W3C//DTD SVG 1.1//EN" "http://www.w3.org/Graphics/SVG/1.1/DTD/svg11.dtd"><svg t="1646652113514" class="icon" viewBox="0 0 1024 1024" version="1.1" xmlns="http://www.w3.org/2000/svg" p-id="50850" xmlns:xlink="http://www.w3.org/1999/xlink" width="128" height="128"><defs><style type="text/css"></style></defs><path d="M513.28 509.696m-450.816 0a450.816 450.816 0 1 0 901.632 0 450.816 450.816 0 1 0-901.632 0Z" fill="#FFE3DB" p-id="50851"></path><path d="M794.7264 704.2048l-23.3984-396.9536c-2.0992-35.7888-31.744-63.6928-67.584-63.6928h-380.928c-35.84 0-65.4848 27.9552-67.584 63.6928l-23.3984 396.9536c-2.304 38.912 28.6208 71.68 67.584 71.68h427.7248c38.9632 0 69.888-32.8192 67.584-71.68z m-104.1408-289.6896c-8.3968 92.672-84.3264 165.4272-176.4864 165.4272-91.5968 0-167.2192-71.8848-176.3328-163.7376a39.76192 39.76192 0 0 1-14.0288-30.464c0-21.7088 16.9984-39.2704 37.9392-39.2704 20.992 0 37.9392 17.5616 37.9392 39.2704 0 10.0352-3.6864 19.2-9.6768 26.112 6.912 65.024 59.904 115.7632 124.16 115.7632 63.6416 0 116.3264-49.8688 123.9552-114.0736a39.76704 39.76704 0 0 1-11.1616-27.8016c0-21.7088 16.9984-39.2704 37.9392-39.2704s37.9392 17.5616 37.9392 39.2704c0.0512 11.3664-4.6592 21.6064-12.1856 28.7744z" fill="#F23D4F" p-id="50852"></path><path d="M771.2768 307.2512c-2.0992-35.7888-31.744-63.6928-67.584-63.6928H322.816c-35.84 0-65.4848 27.9552-67.584 63.6928l-23.3984 396.9536c-2.304 38.912 28.6208 71.68 67.584 71.68h224.8192c125.4912-54.2208 221.4912-163.7888 257.1264-297.984l-10.0864-170.6496z m-80.6912 107.264c-8.3968 92.672-84.3264 165.4272-176.4864 165.4272-91.5968 0-167.2192-71.8848-176.3328-163.7376a39.76192 39.76192 0 0 1-14.0288-30.464c0-21.7088 16.9984-39.2704 37.9392-39.2704 20.992 0 37.9392 17.5616 37.9392 39.2704 0 10.0352-3.6864 19.1488-9.6768 26.112 6.912 65.024 59.904 115.7632 124.16 115.7632 63.6416 0 116.3264-49.8688 123.9552-114.0736a39.76704 39.76704 0 0 1-11.1616-27.8016c0-21.7088 16.9984-39.2704 37.9904-39.2704 20.9408 0 37.9392 17.5616 37.9392 39.2704 0 11.3664-4.7104 21.6064-12.2368 28.7744z" fill="#FC4956" p-id="50853"></path><path d="M474.6752 575.3856c-73.0624-17.152-129.1264-80.896-136.9088-159.1296a39.76192 39.76192 0 0 1-14.0288-30.464c0-21.7088 16.9984-39.2704 37.9392-39.2704 20.992 0 37.9392 17.5616 37.9392 39.2704 0 10.0352-3.6864 19.1488-9.6768 26.112 6.912 65.024 59.904 115.7632 124.16 115.7632 7.424 0 14.6944-0.7168 21.8112-1.9968a451.7376 451.7376 0 0 0 92.672-128.2048 39.7312 39.7312 0 0 1-1.6896-11.6736c0-15.4112 8.6016-28.672 21.0432-35.1232a450.0992 450.0992 0 0 0 23.2448-107.1104H322.816c-35.84 0-65.4848 27.9552-67.584 63.6928l-20.3776 345.1392c88.7296-2.4064 171.0592-30.464 239.8208-77.0048z" fill="#FF5C64" p-id="50854"></path><path d="M339.6096 429.568c-0.768-4.4032-1.4336-8.8576-1.8432-13.3632a39.76192 39.76192 0 0 1-14.0288-30.464c0-21.7088 16.9984-39.2704 37.9392-39.2704 20.992 0 37.9392 17.5616 37.9392 39.2704 0 0.3584-0.0512 0.7168-0.0512 1.0752a451.6864 451.6864 0 0 0 112.7936-143.3088H322.816c-35.84 0-65.4848 27.9552-67.584 63.6928l-9.728 164.7104a442.9824 442.9824 0 0 0 94.1056-42.3424z" fill="#FF716E" p-id="50855"></path></svg>