<?xml version="1.0" standalone="no"?><!DOCTYPE svg PUBLIC "-//W3C//DTD SVG 1.1//EN" "http://www.w3.org/Graphics/SVG/1.1/DTD/svg11.dtd"><svg t="1646655933175" class="icon" viewBox="0 0 1024 1024" version="1.1" xmlns="http://www.w3.org/2000/svg" p-id="52299" xmlns:xlink="http://www.w3.org/1999/xlink" width="128" height="128"><defs><style type="text/css"></style></defs><path d="M514.7136 511.3856m-450.816 0a450.816 450.816 0 1 0 901.632 0 450.816 450.816 0 1 0-901.632 0Z" fill="#E9F4FF" p-id="52300"></path><path d="M798.6176 607.6928h-30.0544v-72.3968c0-29.44-23.9616-53.4016-53.4016-53.4016h-167.7312V430.3872h52.2752c26.1632 0 47.36-21.1968 47.36-47.36V240.9472c0-26.1632-21.1968-47.36-47.36-47.36H436.3264c-26.1632 0-47.36 21.1968-47.36 47.36v142.08c0 26.1632 21.1968 47.36 47.36 47.36h60.0576v51.5072H314.8288c-29.44 0-53.4016 23.9616-53.4016 53.4016v72.3968h-24.4224a36.6592 36.6592 0 0 0-36.6592 36.6592v97.0752c0 20.224 16.384 36.6592 36.6592 36.6592h112.4352c20.224 0 36.6592-16.384 36.6592-36.6592v-97.0752c0-20.224-16.384-36.6592-36.6592-36.6592h-36.9664v-72.3968c0-1.28 1.0752-2.3552 2.3552-2.3552h181.504v74.752h-34.56a36.6592 36.6592 0 0 0-36.6592 36.6592v97.0752c0 20.224 16.384 36.6592 36.6592 36.6592h112.4352c20.224 0 36.6592-16.384 36.6592-36.6592v-97.0752c0-20.224-16.384-36.6592-36.6592-36.6592h-26.7776v-74.752h167.7312c1.28 0 2.3552 1.0752 2.3552 2.3552v72.3968h-31.2832a36.6592 36.6592 0 0 0-36.6592 36.6592v97.0752c0 20.224 16.384 36.6592 36.6592 36.6592h112.4352c20.224 0 36.6592-16.384 36.6592-36.6592v-97.0752c-0.1024-20.224-16.4864-36.6592-36.7104-36.6592z" fill="#2595E8" p-id="52301"></path><path d="M686.1824 607.6928a36.6592 36.6592 0 0 0-36.6592 36.6592v96.3072c48.128-36.5056 88.7296-82.432 118.9888-135.0656v-70.2464c0-29.44-23.9616-53.4016-53.4016-53.4016h-167.7312V430.3872h52.2752c26.1632 0 47.36-21.1968 47.36-47.36V240.9472c0-26.1632-21.1968-47.36-47.36-47.36h-163.328c-26.1632 0-47.36 21.1968-47.36 47.36v142.08c0 26.1632 21.1968 47.36 47.36 47.36h60.0576v51.5072H314.8288c-29.44 0-53.4016 23.9616-53.4016 53.4016v72.3968h-24.4224a36.6592 36.6592 0 0 0-36.6592 36.6592v97.0752c0 20.224 16.384 36.6592 36.6592 36.6592h112.4352c20.224 0 36.6592-16.384 36.6592-36.6592v-97.0752c0-20.224-16.384-36.6592-36.6592-36.6592h-36.9664v-72.3968c0-1.28 1.0752-2.3552 2.3552-2.3552h181.504v74.752h-34.56a36.6592 36.6592 0 0 0-36.6592 36.6592v97.0752c0 20.224 16.384 36.6592 36.6592 36.6592h112.4352c20.224 0 36.6592-16.384 36.6592-36.6592v-97.0752c0-20.224-16.384-36.6592-36.6592-36.6592h-26.7776v-74.752h167.7312c1.28 0 2.3552 1.0752 2.3552 2.3552v72.3968h-31.3344z" fill="#3A9CED" p-id="52302"></path><path d="M547.4304 481.8944V430.3872h52.2752c26.1632 0 47.36-21.1968 47.36-47.36V240.9472c0-26.1632-21.1968-47.36-47.36-47.36H436.3264c-26.1632 0-47.36 21.1968-47.36 47.36v142.08c0 26.1632 21.1968 47.36 47.36 47.36h60.0576v51.5072H314.8288c-29.44 0-53.4016 23.9616-53.4016 53.4016v72.3968h-24.4224a36.6592 36.6592 0 0 0-36.6592 36.6592v24.3712c17.6128 2.0992 35.5328 3.2256 53.76 3.2256 45.9264 0 90.2144-6.8608 131.9424-19.6608v-7.936c0-20.224-16.384-36.6592-36.6592-36.6592h-36.9664v-72.3968c0-1.28 1.0752-2.3552 2.3552-2.3552h181.504v68.4032c17.92-11.4176 34.9696-24.1152 51.0464-37.9392v-30.5152h32.256c15.2576-15.9232 29.3888-33.024 42.24-51.0464h-74.3936z" fill="#59ADF8" p-id="52303"></path><path d="M425.728 638.1056c20.992-8.6528 41.1648-18.7904 60.416-30.3616H461.824c-18.1248-0.0512-33.1264 13.1072-36.096 30.3616z" fill="#72BCFB" p-id="52304"></path><path d="M571.904 193.5872H436.3264c-26.1632 0-47.36 21.1968-47.36 47.36v142.08c0 16.64 8.6016 31.2832 21.6576 39.7312 75.6736-56.6784 132.9664-136.6016 161.28-229.1712z" fill="#6BC2FC" p-id="52305"></path></svg>