<?xml version="1.0" standalone="no"?><!DOCTYPE svg PUBLIC "-//W3C//DTD SVG 1.1//EN" "http://www.w3.org/Graphics/SVG/1.1/DTD/svg11.dtd"><svg t="1646784283662" class="icon" viewBox="0 0 1024 1024" version="1.1" xmlns="http://www.w3.org/2000/svg" p-id="17299" xmlns:xlink="http://www.w3.org/1999/xlink" width="128" height="128"><defs><style type="text/css"></style></defs><path d="M504.32 514.7136m-450.816 0a450.816 450.816 0 1 0 901.632 0 450.816 450.816 0 1 0-901.632 0Z" fill="#FFE1E9" p-id="17300"></path><path d="M650.1376 382.8224c-10.3424 0-20.6336-4.4032-27.8016-12.9536-12.8512-15.36-10.8032-38.1952 4.5056-51.0464l98.304-82.2784c15.36-12.8512 38.1952-10.8032 51.0464 4.5056 12.8512 15.36 10.8032 38.1952-4.5056 51.0464l-98.304 82.2784a35.95264 35.95264 0 0 1-23.2448 8.448zM748.4416 782.2336c-8.192 0-16.4352-2.7648-23.2448-8.448l-98.304-82.2784c-15.36-12.8512-17.3568-35.6864-4.5056-51.0464 12.8512-15.36 35.6864-17.3568 51.0464-4.5056l98.304 82.2784a36.21888 36.21888 0 0 1-23.296 64zM815.5136 544.3584h-137.1648a36.2496 36.2496 0 0 1 0-72.4992h137.1648a36.2496 36.2496 0 0 1 36.2496 36.2496c-0.0512 20.0704-16.2816 36.2496-36.2496 36.2496zM504.7808 247.0912l-166.912 110.1312c-10.5984 7.68-23.3472 11.776-36.4544 11.776H231.3728c-34.4064 0-62.3104 27.904-62.3104 62.3104v161.28c0 34.4064 27.904 62.3104 62.3104 62.3104h92.3136c12.9536 0 25.6 4.0448 36.1472 11.5712l145.1008 93.1328c29.0816 20.736 69.4784-0.0512 69.4784-35.7888V282.7264c0.0512-35.84-40.5504-56.6272-69.632-35.6352z m-158.464 324.0448a36.2496 36.2496 0 0 1-72.4992 0v-122.88a36.2496 36.2496 0 0 1 72.4992 0v122.88z" fill="#FF3369" p-id="17301"></path><path d="M574.464 632.576V282.7264c0-35.84-40.6016-56.6272-69.6832-35.6352l-166.912 110.1312c-10.5984 7.68-23.3472 11.776-36.4544 11.776H231.3728c-34.4064 0-62.3104 27.904-62.3104 62.3104v161.28c0 34.4064 27.904 62.3104 62.3104 62.3104h92.3136c12.9536 0 25.6 4.0448 36.1472 11.5712l80.384 51.6096c51.2-18.1248 96.9728-47.616 134.2464-85.504z m-228.1472-61.44a36.2496 36.2496 0 0 1-72.4992 0v-122.88a36.2496 36.2496 0 0 1 72.4992 0v122.88zM642.0992 508.16c0 6.4512 1.6896 12.4928 4.6592 17.7152 7.2192-16.4864 13.2096-33.5872 17.92-51.2512a36.17792 36.17792 0 0 0-22.5792 33.536zM663.296 288.3584l-36.4032 30.464a36.21888 36.21888 0 0 0 23.296 64c8.192 0 16.4352-2.7648 23.2448-8.448l2.7136-2.2528a355.69664 355.69664 0 0 0-12.8512-83.7632z" fill="#FF4D7C" p-id="17302"></path><path d="M338.2272 593.8688c122.2144-41.216 214.528-147.1488 236.2368-277.0944v-34.048c0-35.84-40.6016-56.6272-69.6832-35.6352l-166.912 110.1312c-10.5984 7.68-23.3472 11.776-36.4544 11.776H231.3728c-34.4064 0-62.3104 27.904-62.3104 62.3104v161.28c0 5.4784 0.768 10.752 2.0992 15.8208 17.5104 2.6624 35.4304 4.0448 53.7088 4.0448 24.8832 0 49.1008-2.56 72.5504-7.4752-13.7728-5.12-23.6032-18.3808-23.6032-33.8944V448.256a36.2496 36.2496 0 0 1 72.4992 0v122.8288a35.84 35.84 0 0 1-8.0896 22.784z" fill="#FF5F89" p-id="17303"></path><path d="M459.4688 276.992L337.8688 357.2224c-10.5984 7.68-23.3472 11.776-36.4544 11.776H231.3728c-34.4064 0-62.3104 27.904-62.3104 62.3104v54.1184c36.8128-3.4304 72.0384-12.4416 104.7552-26.3168v-10.8544a36.2496 36.2496 0 0 1 36.2496-36.2496c10.752 0 20.4288 4.7104 27.0336 12.1856a355.66592 355.66592 0 0 0 122.368-147.2z" fill="#FF7196" p-id="17304"></path></svg>