<?xml version="1.0" standalone="no"?><!DOCTYPE svg PUBLIC "-//W3C//DTD SVG 1.1//EN" "http://www.w3.org/Graphics/SVG/1.1/DTD/svg11.dtd"><svg t="1646653957211" class="icon" viewBox="0 0 1024 1024" version="1.1" xmlns="http://www.w3.org/2000/svg" p-id="52139" xmlns:xlink="http://www.w3.org/1999/xlink" width="128" height="128"><defs><style type="text/css"></style></defs><path d="M515.9424 512.768m-450.816 0a450.816 450.816 0 1 0 901.632 0 450.816 450.816 0 1 0-901.632 0Z" fill="#FFF1DC" p-id="52140"></path><path d="M516.4544 251.1872c69.4784 0 138.9568-0.1024 208.4352 0.0512 50.4832 0.1024 74.5472 23.9616 74.5472 73.8816 0.0512 124.9792 0.0512 250.0096 0 374.9888 0 49.8176-24.2176 74.0864-74.5984 74.1888-138.9568 0.1536-277.9136 0.1536-416.8192 0-52.0192-0.0512-75.4176-23.4496-75.4688-75.1616-0.1536-124.3648-0.1536-248.7296 0-373.0944 0.0512-51.3536 23.7568-74.7008 75.52-74.8032 69.4272-0.1536 138.9056-0.0512 208.384-0.0512z m-110.5408 281.5488c-36.864 48.896-72.2944 95.8976-109.6704 145.4592h439.6544c-48.0256-65.2288-94.0032-127.7952-141.2096-191.8976-37.632 48.1792-73.472 94.0544-110.0288 140.9024-26.9824-32.3584-51.968-62.4128-78.7456-94.464zM371.5072 439.296c32.768 0.1536 57.7024-24.4736 57.5488-56.9344-0.1536-30.976-25.4976-56.7808-56.1664-57.1904-31.3856-0.4608-58.4192 25.6512-58.7264 56.7296-0.3584 32.2048 24.6272 57.1904 57.344 57.3952z" fill="#FC7032" p-id="52141"></path><path d="M516.4544 251.1872c-69.4784 0-138.9568-0.1024-208.4352 0.0512-51.7632 0.1024-75.4688 23.4496-75.52 74.8032-0.1536 124.3648-0.1536 248.7296 0 373.0944 0.0512 51.712 23.4496 75.1104 75.4688 75.1616 85.0432 0.1024 170.1376 0 255.1808 0a452.77184 452.77184 0 0 0 98.7136-96.0512H296.192c37.376-49.5616 72.8064-96.5632 109.6704-145.4592 26.7264 32.0512 51.7632 62.1056 78.7456 94.464 36.608-46.848 72.448-92.7232 110.0288-140.9024 34.2016 46.4384 67.7376 92.1088 101.888 138.496 35.7888-64.6144 56.1664-138.9568 56.1664-218.0096 0-54.6816-9.728-107.0592-27.5456-155.5456h-0.3584c-69.376-0.2048-138.8544-0.1024-208.3328-0.1024zM371.5072 439.296c-32.7168-0.1536-57.7024-25.1904-57.3952-57.3952 0.3072-31.0784 27.3408-57.1904 58.7264-56.7296 30.6688 0.4608 56.0128 26.2144 56.1664 57.1904 0.2048 32.4096-24.7296 57.088-57.4976 56.9344z" fill="#FF7E3E" p-id="52142"></path><path d="M309.4528 678.1952h-13.1584c37.376-49.5616 72.8064-96.5632 109.6704-145.4592 18.6368 22.3744 36.5056 43.776 54.7328 65.6384 101.8368-81.7664 167.3728-206.7968 168.7552-347.2384-37.632 0-75.3152 0.0512-112.9472 0.0512-69.4784 0-138.9568-0.1024-208.4352 0.0512-51.7632 0.1024-75.4688 23.4496-75.52 74.8032-0.1536 122.7776-0.1024 245.504 0 368.2816a448.6656 448.6656 0 0 0 76.9024-16.128z m63.4368-353.024c30.6688 0.4608 56.0128 26.2144 56.1664 57.1904 0.1536 32.4096-24.7808 57.088-57.5488 56.9344-32.7168-0.1536-57.7024-25.1904-57.3952-57.3952 0.3072-31.0784 27.392-57.1904 58.7776-56.7296z" fill="#FF9552" p-id="52143"></path><path d="M351.232 435.6608c-22.1696-7.9872-37.376-28.672-37.12-53.8112 0.3072-31.0784 27.3408-57.1904 58.7264-56.7296 22.784 0.3072 42.5984 14.6432 51.3536 34.7136a451.1744 451.1744 0 0 0 61.0816-108.6976c-59.0848 0-118.1696-0.0512-177.2544 0.0512-51.7632 0.1024-75.4688 23.4496-75.52 74.8032-0.0512 59.9552 0 119.9104 0 179.8656A448.06656 448.06656 0 0 0 351.232 435.6608z" fill="#FFA56A" p-id="52144"></path></svg>