<?xml version="1.0" standalone="no"?><!DOCTYPE svg PUBLIC "-//W3C//DTD SVG 1.1//EN" "http://www.w3.org/Graphics/SVG/1.1/DTD/svg11.dtd"><svg t="1646652266489" class="icon" viewBox="0 0 1024 1024" version="1.1" xmlns="http://www.w3.org/2000/svg" p-id="51491" xmlns:xlink="http://www.w3.org/1999/xlink" width="128" height="128"><defs><style type="text/css"></style></defs><path d="M511.8464 513.6384m-450.816 0a450.816 450.816 0 1 0 901.632 0 450.816 450.816 0 1 0-901.632 0Z" fill="#E9F4FF" p-id="51492"></path><path d="M516.9664 294.0416C399.616 294.0416 304.128 389.5296 304.128 506.88s95.488 212.8384 212.8384 212.8384 212.8384-95.488 212.8384-212.8384-95.488-212.8384-212.8384-212.8384z m81.92 231.9872c16.3328 0 29.5936 13.2608 29.5936 29.5936 0 16.3328-13.2608 29.5936-29.5936 29.5936h-52.3264v16.9984c0 16.3328-13.2608 29.5936-29.5936 29.5936s-29.5936-13.2608-29.5936-29.5936v-16.9984H435.0464c-16.3328 0-29.5936-13.2608-29.5936-29.5936 0-16.3328 13.2608-29.5936 29.5936-29.5936H487.424v-20.3264H435.0464c-16.3328 0-29.5936-13.2608-29.5936-29.5936 0-16.3328 13.2608-29.5936 29.5936-29.5936h19.9168l-12.6464-17.7152c-9.472-13.312-6.4-31.7952 6.912-41.2672 13.312-9.472 31.7952-6.4 41.2672 6.912l25.7536 36.096 23.808-35.4304a29.58336 29.58336 0 0 1 41.0624-8.0384 29.58336 29.58336 0 0 1 8.0384 41.0624l-12.3904 18.3808h22.1184c16.3328 0 29.5936 13.2608 29.5936 29.5936 0 16.3328-13.2608 29.5936-29.5936 29.5936h-52.3264v20.3264h52.3264z" fill="#3A9CED" p-id="51493"></path><path d="M516.9664 179.2c-180.9408 0-327.68 146.688-327.68 327.68 0 180.9408 146.688 327.68 327.68 327.68 180.9408 0 327.68-146.688 327.68-327.68 0-180.9408-146.688-327.68-327.68-327.68z m0 604.2112c-152.4736 0-276.5312-124.0576-276.5312-276.5312s124.0576-276.5312 276.5312-276.5312S793.4976 354.4064 793.4976 506.88s-124.0576 276.5312-276.5312 276.5312z" fill="#2595E8" p-id="51494"></path><path d="M481.536 781.056C345.7536 763.5968 240.4352 647.3216 240.4352 506.88c0-152.4736 124.0576-276.5312 276.5312-276.5312 141.0048 0 257.5872 106.0864 274.3808 242.6368A448.14336 448.14336 0 0 0 808.96 358.3488C754.8416 252.0576 644.4544 179.2 516.9664 179.2c-180.9408 0-327.68 146.688-327.68 327.68 0 126.7712 72.0384 236.6464 177.3568 291.1232 39.7824-0.7168 78.2848-6.5536 114.8928-16.9472z" fill="#3A9CED" p-id="51495"></path><path d="M240.4352 506.88c0-152.4736 124.0576-276.5312 276.5312-276.5312 59.1872 0 114.0224 18.7392 159.0784 50.5344 3.84-18.2272 6.6048-36.8128 8.192-55.7568-48.9472-29.1328-106.1376-45.8752-167.2192-45.8752-180.9408 0-327.68 146.688-327.68 327.68 0 46.4896 9.728 90.6752 27.1872 130.7136 6.144 0.256 12.288 0.4096 18.4832 0.4096 12.6976 0 25.2928-0.5632 37.7344-1.5872A275.17952 275.17952 0 0 1 240.4352 506.88zM546.56 513.024c2.5088-2.4064 5.0176-4.864 7.4752-7.3216h-7.4752v7.3216z" fill="#59ADF8" p-id="51496"></path><path d="M516.9664 294.0416C399.616 294.0416 304.128 389.5296 304.128 506.88c0 43.9296 13.3632 84.7872 36.2496 118.6816a449.29536 449.29536 0 0 0 106.496-40.3968h-11.8272c-16.3328 0-29.5936-13.2608-29.5936-29.5936 0-16.3328 13.2608-29.5936 29.5936-29.5936H487.424v-20.3264H435.0464c-16.3328 0-29.5936-13.2608-29.5936-29.5936 0-16.3328 13.2608-29.5936 29.5936-29.5936h19.9168l-12.6464-17.7152c-9.472-13.312-6.4-31.7952 6.912-41.2672 13.312-9.472 31.7952-6.4 41.2672 6.912l25.7536 36.096 23.808-35.4304a29.58336 29.58336 0 0 1 41.0624-8.0384 29.58336 29.58336 0 0 1 8.0384 41.0624l-12.3904 18.3808h22.1184c1.5872 0 3.1232 0.1536 4.608 0.4096a448 448 0 0 0 53.248-100.3008c-37.376-32.6656-86.272-52.5312-139.776-52.5312z" fill="#59ADF8" p-id="51497"></path><path d="M191.0272 473.1392c18.1248-2.816 35.84-6.656 53.1968-11.5712 21.7088-131.0208 135.7312-231.2192 272.7424-231.2192 2.4576 0 4.864 0.1024 7.2704 0.2048 8.1408-16.128 15.36-32.8192 21.5552-49.9712a335.4624 335.4624 0 0 0-28.8256-1.3312C347.392 179.2 207.9232 308.0192 191.0272 473.1392z" fill="#6BC2FC" p-id="51498"></path><path d="M317.0304 434.0224A452.14208 452.14208 0 0 0 483.328 296.7552c-76.9024 12.288-140.2368 65.8944-166.2976 137.2672z" fill="#6BC2FC" p-id="51499"></path></svg>