<?xml version="1.0" standalone="no"?><!DOCTYPE svg PUBLIC "-//W3C//DTD SVG 1.1//EN" "http://www.w3.org/Graphics/SVG/1.1/DTD/svg11.dtd"><svg t="1647084374800" class="icon" viewBox="0 0 1024 1024" version="1.1" xmlns="http://www.w3.org/2000/svg" p-id="2511" xmlns:xlink="http://www.w3.org/1999/xlink" width="128" height="128"><defs><style type="text/css"></style></defs><path d="M518.519467 912.725333a299.281067 299.281067 0 0 1-180.906667-56.149333 245.76 245.76 0 0 0-66.833067 27.784533c-14.9504 10.24-13.1072 20.7872-10.24 25.053867 11.844267 18.6368 203.093333 11.8784 258.286934 6.075733z" fill="#FAAD08" p-id="2512"></path><path d="M505.514667 912.725333a299.281067 299.281067 0 0 0 180.906666-56.149333 245.76 245.76 0 0 1 66.833067 27.784533c14.9504 10.24 13.1072 20.7872 10.24 25.053867-11.844267 18.6368-203.093333 11.8784-258.286933 6.075733z" fill="#FAAD08" p-id="2513"></path><path d="M505.924267 478.139733a1023.0784 1023.0784 0 0 0 246.237866-31.812266 30.72 30.72 0 0 0 11.810134-5.7344c0-1.058133 0.477867-18.875733 0.477866-28.0576C764.450133 257.8432 689.595733 102.4 505.514667 102.4s-259.003733 155.4432-259.003734 310.135467c0 9.181867 0.477867 26.999467 0.477867 28.0576a22.2208 22.2208 0 0 0 9.489067 5.12 1019.255467 1019.255467 0 0 0 248.558933 32.426666h0.887467z" p-id="2514"></path><path d="M832.853333 608.904533a1397.521067 1397.521067 0 0 0-27.306666-77.175466 29.832533 29.832533 0 0 0-8.738134 0 1063.0144 1063.0144 0 0 1-284.296533 42.052266h-0.853333a1062.980267 1062.980267 0 0 1-282.794667-41.608533 41.437867 41.437867 0 0 0-10.24-0.580267 1183.061333 1183.061333 0 0 0-27.306667 77.175467c-34.850133 111.991467-23.552 158.3104-14.9504 159.368533 18.466133 2.218667 71.68-84.309333 71.68-84.309333 0 87.927467 79.530667 222.9248 261.597867 224.1536h4.846933c182.0672-1.2288 261.597867-136.226133 261.597867-224.1536 0 0 53.384533 86.528 71.68 84.309333 8.6016-1.024 19.899733-47.377067-14.9504-159.368533" p-id="2515"></path><path d="M449.467733 336.247467c-25.122133 1.1264-46.592-27.101867-47.786666-62.976s17.885867-65.911467 43.008-67.037867 46.557867 27.101867 47.786666 63.010133-17.885867 65.911467-42.973866 67.003734m186.0608-62.976c-1.3312 35.874133-22.801067 64.1024-47.786667 62.976s-44.373333-31.095467-42.973867-67.003734 22.801067-64.1024 47.786667-63.010133 44.373333 31.1296 43.008 67.037867" fill="#FFFFFF" p-id="2516"></path><path d="M674.133333 382.805333c-6.587733-15.837867-72.977067-33.518933-155.170133-33.518933h-0.887467c-82.193067 0-148.5824 17.646933-155.170133 33.518933a5.563733 5.563733 0 0 0-0.477867 2.2528 5.666133 5.666133 0 0 0 0.887467 3.037867 271.906133 271.906133 0 0 0 154.7264 52.224h0.887467a271.940267 271.940267 0 0 0 154.7264-52.224 5.700267 5.700267 0 0 0 0.887466-3.072 5.632 5.632 0 0 0-0.477866-2.2528" fill="#FAAD08" p-id="2517"></path><path d="M479.402667 281.736533a24.8832 24.8832 0 0 1-17.339734 28.398934c-10.717867 1.399467-20.48-9.079467-21.469866-23.381334a24.8832 24.8832 0 0 1 17.339733-28.398933c10.752-1.399467 20.48 9.079467 21.469867 23.381333m65.809066 7.133867a45.909333 45.909333 0 0 1 50.0736-16.110933 26.146133 26.146133 0 0 1 13.2096 5.700266 6.826667 6.826667 0 0 1 0.3072 6.826667 7.4752 7.4752 0 0 1-10.24 4.7104 36.9664 36.9664 0 0 0-44.919466 5.905067 4.949333 4.949333 0 0 1-6.382934 0.2048 5.666133 5.666133 0 0 1-1.979733-7.338667" p-id="2518"></path><path d="M512.443733 577.1264h-0.887466a1006.592 1006.592 0 0 1-193.809067-19.729067 522.786133 522.786133 0 0 0-6.2464 122.606934c7.543467 123.6992 82.466133 201.386667 198.178133 202.5472h4.7104c115.677867-1.1264 190.634667-78.882133 198.178134-202.5472a522.717867 522.717867 0 0 0-6.2464-122.606934 1006.148267 1006.148267 0 0 1-193.8432 19.729067" fill="#FFFFFF" p-id="2519"></path><path d="M349.422933 570.402133v123.767467a409.088 409.088 0 0 0 117.077334 3.413333v-114.0736a1110.084267 1110.084267 0 0 1-117.077334-13.1072" fill="#EB1C26" p-id="2520"></path><path d="M767.8976 440.32a917.947733 917.947733 0 0 1-255.453867 37.546667h-0.853333a917.879467 917.879467 0 0 1-255.453867-37.546667l-36.795733 96.290133a1015.364267 1015.364267 0 0 0 292.215467 46.762667h0.853333a1015.0912 1015.0912 0 0 0 292.215467-46.762667z" fill="#EB1C26" p-id="2521"></path></svg>