<?xml version="1.0" standalone="no"?><!DOCTYPE svg PUBLIC "-//W3C//DTD SVG 1.1//EN" "http://www.w3.org/Graphics/SVG/1.1/DTD/svg11.dtd"><svg t="1646656337751" class="icon" viewBox="0 0 1024 1024" version="1.1" xmlns="http://www.w3.org/2000/svg" p-id="53106" xmlns:xlink="http://www.w3.org/1999/xlink" width="128" height="128"><defs><style type="text/css"></style></defs><path d="M514.6112 514.7136m-450.816 0a450.816 450.816 0 1 0 901.632 0 450.816 450.816 0 1 0-901.632 0Z" fill="#FFF1DC" p-id="53107"></path><path d="M751.36 370.3808H285.5424c-34.816 0-63.0272 28.2112-63.0272 63.0272v291.328c0 34.816 28.2112 63.0272 63.0272 63.0272h465.8176c34.816 0 63.0272-28.2112 63.0272-63.0272v-291.328c0-34.7648-28.2112-63.0272-63.0272-63.0272z m-125.6448 252.2624c-26.6752 29.44-58.7776 52.3776-90.7264 75.52-10.9568 7.936-23.7056 7.3216-35.4304-1.4336-18.688-13.9776-37.2736-28.1088-55.5008-42.7008-17.664-14.1824-33.6896-30.1056-46.9504-48.6912-26.0096-36.5056-25.2928-87.552 2.56-121.6 15.872-19.4048 37.0176-27.5968 61.952-26.5728 20.8384 0.8192 38.9632 7.8336 53.6576 22.9888 0.6656 0.6656 1.3312 1.28 2.048 1.8944 0.256 0.2048 0.6656 0.3072 1.5872 0.7168 11.264-11.52 23.9616-20.3264 39.9872-23.6032 51.1488-10.2912 87.0912 18.432 97.1776 64.4096 8.5504 38.6048-4.7104 70.7584-30.3616 99.072z" fill="#FF8E12" p-id="53108"></path><path d="M723.8144 340.7872H313.088c-12.544 0-22.6816-10.1376-22.6816-22.6816s10.1376-22.6816 22.6816-22.6816h410.7264c12.544 0 22.6816 10.1376 22.6816 22.6816s-10.1376 22.6816-22.6816 22.6816zM676.6592 276.48h-316.416c-12.544 0-22.6816-10.1376-22.6816-22.6816 0-12.544 10.1376-22.6816 22.6816-22.6816h316.416c12.544 0 22.6816 10.1376 22.6816 22.6816 0 12.4928-10.1888 22.6816-22.6816 22.6816zM285.5424 370.3808c-34.816 0-63.0272 28.2112-63.0272 63.0272v291.328c0 34.816 28.2112 63.0272 63.0272 63.0272h274.0736c137.8816-77.1072 231.1168-224.512 231.1168-393.728 0-3.328-0.0512-6.6048-0.1024-9.9328-10.752-8.6016-24.3712-13.7728-39.2192-13.7728H285.5424z m340.1728 252.2624c-26.6752 29.44-58.7776 52.3776-90.7264 75.52-10.9568 7.936-23.7056 7.3216-35.4304-1.4336-18.688-13.9776-37.2736-28.1088-55.5008-42.7008-17.664-14.1824-33.6896-30.1056-46.9504-48.6912-26.0096-36.5056-25.2928-87.552 2.56-121.6 15.872-19.4048 37.0176-27.5968 61.952-26.5728 20.8384 0.8192 38.9632 7.8336 53.6576 22.9888 0.6656 0.6656 1.3312 1.28 2.048 1.8944 0.256 0.2048 0.6656 0.3072 1.5872 0.7168 11.264-11.52 23.9616-20.3264 39.9872-23.6032 51.1488-10.2912 87.0912 18.432 97.1776 64.4096 8.5504 38.6048-4.7104 70.7584-30.3616 99.072z" fill="#FCA315" p-id="53109"></path><path d="M337.5616 253.7984c0 12.544 10.1376 22.6816 22.6816 22.6816h305.152c1.3312-13.9776 1.9968-28.16 1.9968-42.496 0-0.9728-0.0512-1.8944-0.0512-2.8672H360.2432c-12.4928 0-22.6816 10.1376-22.6816 22.6816z" fill="#FCB138" p-id="53110"></path><path d="M526.0288 231.1168H360.2432c-12.544 0-22.6816 10.1376-22.6816 22.6816S347.7504 276.48 360.2432 276.48h146.0224a435.3536 435.3536 0 0 0 19.7632-45.3632z" fill="#FFC65E" p-id="53111"></path><path d="M663.2448 295.424H313.088c-12.544 0-22.6816 10.1376-22.6816 22.6816 0 12.544 10.1376 22.6816 22.6816 22.6816h341.5552c3.6352-14.848 6.5024-29.952 8.6016-45.3632z" fill="#FCB138" p-id="53112"></path><path d="M496.1792 295.424H313.088c-12.544 0-22.6816 10.1376-22.6816 22.6816 0 12.544 10.1376 22.6816 22.6816 22.6816H466.944c10.5984-14.4896 20.3776-29.6448 29.2352-45.3632z" fill="#FFC65E" p-id="53113"></path><path d="M222.5152 433.408v251.2896c72.0896-0.9216 140.1344-18.7392 200.2944-49.7664-9.3184-9.1648-17.9712-18.8928-25.6512-29.6448-26.0096-36.5056-25.2928-87.552 2.56-121.6 15.872-19.4048 37.0176-27.5968 61.952-26.5728 20.8384 0.8192 38.9632 7.8336 53.6576 22.9888 0.6656 0.6656 1.3312 1.28 2.048 1.8944 0.256 0.2048 0.6656 0.3072 1.5872 0.7168 11.264-11.52 23.9616-20.3264 39.9872-23.6032 17.5616-3.5328 33.28-2.4064 46.848 2.4064a447.49824 447.49824 0 0 0 40.6016-91.1872H285.5424c-34.816 0.0512-63.0272 28.3136-63.0272 63.0784z" fill="#FCB138" p-id="53114"></path><path d="M222.5152 433.408v75.8272c86.8352-23.7568 163.2768-72.8576 220.7232-138.8544h-157.696c-34.816 0-63.0272 28.2624-63.0272 63.0272z" fill="#FFC65E" p-id="53115"></path></svg>