<?xml version="1.0" standalone="no"?><!DOCTYPE svg PUBLIC "-//W3C//DTD SVG 1.1//EN" "http://www.w3.org/Graphics/SVG/1.1/DTD/svg11.dtd"><svg t="1646784195666" class="icon" viewBox="0 0 1024 1024" version="1.1" xmlns="http://www.w3.org/2000/svg" p-id="16987" xmlns:xlink="http://www.w3.org/1999/xlink" width="128" height="128"><defs><style type="text/css"></style></defs><path d="M510.5664 512.5632m-450.816 0a450.816 450.816 0 1 0 901.632 0 450.816 450.816 0 1 0-901.632 0Z" fill="#E9F4FF" p-id="16988"></path><path d="M719.104 256.8192c-2.56 22.0672-4.5056 37.7344-6.144 53.4528-3.072 29.5424 11.9808 47.616 41.5232 50.2272 13.9264 1.2288 27.8016 2.9184 41.728 3.9936 14.3872 1.1264 23.808 7.68 27.1872 22.272 7.6288 33.1264 15.616 66.1504 23.296 99.2768 3.4304 14.848-1.1776 25.8048-15.36 33.1264-12.3904 6.4-24.1152 14.08-36.0448 21.2992-24.2176 14.6944-29.5424 37.6832-14.2848 61.8496 7.7824 12.3392 15.3088 24.832 23.6544 36.7616 8.0896 11.6224 7.936 22.2208-1.0752 33.1776-22.3744 27.2384-44.5952 54.5792-66.7136 81.9712-7.936 9.8304-17.152 12.0832-29.0304 7.6288-15.36-5.6832-31.0784-10.3936-46.6944-15.4112-26.9824-8.6016-45.9264 0.8704-55.552 27.648-4.9152 13.7216-9.9328 27.392-14.592 41.216-4.4544 13.1584-13.4144 19.9168-27.1872 19.968-35.84 0.1024-71.7312 0.1024-107.5712-0.1024-12.2368-0.0512-20.4288-5.9392-24.32-18.0736-4.6592-14.4384-9.8816-28.7232-15.0528-42.9568-9.4208-25.9072-30.1056-36.1472-56.064-27.8016-15.616 5.0176-31.3344 9.6768-46.6432 15.5136-12.032 4.608-21.6576 1.9456-29.3376-7.424-23.1424-28.16-45.9264-56.576-68.864-84.9408-7.5776-9.3696-6.8608-18.7904-0.4608-28.5184 8.6528-13.2096 17.3056-26.4192 25.6512-39.8336 14.4896-23.296 9.0112-45.9264-14.5408-60.416-12.4416-7.6288-24.9344-15.1552-37.5296-22.4768-13.3632-7.7312-17.92-18.7392-14.1824-33.792 7.8336-31.7952 15.616-63.6416 22.6304-95.6416 3.584-16.2816 12.9536-23.6032 29.1328-24.5248 14.5408-0.8704 29.0304-2.6112 43.52-4.1472 25.344-2.7136 40.0384-20.0704 38.2464-45.6704-1.1264-16.3328-2.7648-32.6656-4.7104-48.9472-1.5872-13.3632 3.9424-22.272 15.6672-27.8016 31.8464-15.0528 63.7952-29.9008 95.5392-45.2096 12.3904-5.9904 22.528-2.2016 31.5392 6.1952 11.5712 10.752 22.6304 22.016 34.048 32.9728 19.2512 18.5344 41.5232 18.5344 60.8768 0.0512 11.4176-10.9056 22.6304-22.0672 33.9456-33.0752 9.7792-9.4208 20.3264-11.7248 33.1776-5.4784 31.1296 15.0528 63.0272 28.7232 93.7472 44.6464 7.9872 4.352 17.9712 10.8032 16.8448 18.9952z m-318.6176 251.392c1.2288 61.7472 51.0976 111.4624 110.336 110.0288 62.464-1.536 111.104-50.0224 110.4384-110.0288-0.6656-59.0848-52.2752-107.008-114.2784-106.1376-56.4224 0.6656-107.5712 51.712-106.496 106.1376z" fill="#6C6CEA" p-id="16989"></path><path d="M779.4688 362.9056c-8.3456-0.8192-16.6912-1.6896-25.0368-2.4576-29.5424-2.6112-44.5952-20.736-41.5232-50.2272 1.6384-15.7184 3.584-31.3856 6.144-53.4528 1.1776-8.192-8.8064-14.6432-17.1008-18.944-30.72-15.9232-62.5664-29.5424-93.7472-44.6464-12.8512-6.1952-23.3984-3.9424-33.1776 5.4784-11.3664 11.008-22.528 22.1184-33.9456 33.0752-19.3536 18.5344-41.6256 18.4832-60.8768-0.0512-11.3664-10.9568-22.4768-22.2208-34.048-32.9728-9.0624-8.3968-19.1488-12.1856-31.5392-6.1952-31.744 15.3088-63.6928 30.1568-95.5392 45.2096-11.7248 5.5296-17.3056 14.4384-15.6672 27.8016 1.9456 16.2816 3.584 32.6144 4.7104 48.9472 1.792 25.6512-12.9024 43.008-38.2464 45.6704-14.4896 1.536-28.9792 3.2768-43.52 4.1472-16.128 0.9728-25.5488 8.2432-29.1328 24.5248-7.0144 32-14.7968 63.8464-22.6304 95.6416-3.7376 15.104 0.8704 26.0608 14.1824 33.792 12.5952 7.3216 25.088 14.848 37.5296 22.4768 23.552 14.4896 29.0816 37.12 14.5408 60.416-8.3456 13.4144-16.9472 26.624-25.6512 39.8336-6.3488 9.6768-7.1168 19.1488 0.4608 28.5184 22.9376 28.3136 45.7216 56.7808 68.864 84.9408 7.68 9.3696 17.3056 12.032 29.3376 7.424 15.3088-5.8368 31.0272-10.496 46.6432-15.5136 26.0096-8.3456 46.6432 1.8944 56.064 27.8016 2.6112 7.168 5.2224 14.3872 7.7824 21.6064 200.7552-43.3152 351.5904-220.1088 355.1232-432.8448z m-268.6464 255.3344c-59.2384 1.4336-109.1072-48.2816-110.336-110.0288-1.0752-54.4256 50.0736-105.472 106.496-106.1888 62.0032-0.8192 113.5616 47.104 114.2784 106.1376 0.6656 60.0576-47.9744 108.544-110.4384 110.08z" fill="#757BF2" p-id="16990"></path><path d="M608.256 193.28c-12.8512-6.1952-23.3984-3.9424-33.1776 5.4784-11.3664 11.008-22.528 22.1184-33.9456 33.0752-19.3536 18.5344-41.6256 18.4832-60.8768-0.0512-11.3664-10.9568-22.4768-22.2208-34.048-32.9728-9.0624-8.3968-19.1488-12.1856-31.5392-6.1952-31.744 15.3088-63.6928 30.1568-95.5392 45.2096-11.7248 5.5296-17.3056 14.4384-15.6672 27.8016 1.9456 16.2816 3.584 32.6144 4.7104 48.9472 1.792 25.6512-12.9024 43.008-38.2464 45.6704-14.4896 1.536-28.9792 3.2768-43.52 4.1472-16.128 0.9728-25.5488 8.2432-29.1328 24.5248-7.0144 32-14.7968 63.8464-22.6304 95.6416-3.7376 15.104 0.8704 26.0608 14.1824 33.792 12.5952 7.3216 25.088 14.848 37.5296 22.4768 23.552 14.4896 29.0816 37.12 14.5408 60.416-8.3456 13.4144-16.9472 26.624-25.6512 39.8336-1.024 1.5872-1.8944 3.1744-2.6112 4.7616 79.872-1.28 154.7264-23.296 219.3408-60.928-18.944-19.8144-30.9248-46.848-31.5392-76.7488-1.024-54.3744 50.1248-105.4208 106.5472-106.1376 31.488-0.4096 60.3136 11.776 81.1008 31.5904 39.8336-63.7952 64.1536-138.24 67.6864-218.112-15.872-7.3728-31.7952-14.6432-47.5136-22.2208z" fill="#8486F8" p-id="16991"></path><path d="M493.312 241.2544a57.1392 57.1392 0 0 1-13.1072-9.472c-11.3664-10.9568-22.4768-22.2208-34.048-32.9728-9.0624-8.3968-19.1488-12.1856-31.5392-6.1952-31.744 15.3088-63.6928 30.1568-95.5392 45.2096-11.7248 5.5296-17.3056 14.4384-15.6672 27.8016 1.9456 16.2816 3.584 32.6144 4.7104 48.9472 1.792 25.6512-12.9024 43.008-38.2464 45.6704-14.4896 1.536-28.9792 3.2768-43.52 4.1472-16.128 0.9728-25.5488 8.2432-29.1328 24.5248-6.5536 30.0032-13.824 59.8528-21.1456 89.6512 138.5984-26.112 254.7712-115.6608 317.2352-237.312z" fill="#8D92F8" p-id="16992"></path></svg>