<?xml version="1.0" standalone="no"?><!DOCTYPE svg PUBLIC "-//W3C//DTD SVG 1.1//EN" "http://www.w3.org/Graphics/SVG/1.1/DTD/svg11.dtd"><svg t="1646653666290" class="icon" viewBox="0 0 1024 1024" version="1.1" xmlns="http://www.w3.org/2000/svg" p-id="51814" xmlns:xlink="http://www.w3.org/1999/xlink" width="128" height="128"><defs><style type="text/css"></style></defs><path d="M510.3104 512.5632m-450.816 0a450.816 450.816 0 1 0 901.632 0 450.816 450.816 0 1 0-901.632 0Z" fill="#E3FFF3" p-id="51815"></path><path d="M616.6528 827.5968c-30.8224 12.6976-68.1472 18.5344-105.6256 17.2032-33.2288-1.1776-66.4064-7.5264-99.3792-12.9536-5.2736-0.8704-13.3632-8.6528-13.4144-13.312-0.8704-71.0144-0.6144-142.0288-0.6144-212.6848 73.5744 74.496 146.7392 148.5824 219.0336 221.7472z" fill="#05C46D" p-id="51816"></path><path d="M212.1728 370.1248c14.08-52.0192 95.6416-134.656 156.7232-158.8224 50.8928 52.992 102.3488 106.5472 152.5248 158.8224h-309.248z" fill="#3CD38E" p-id="51817"></path><path d="M595.456 623.9744c77.7728-75.9296 152.064-148.5312 227.3792-222.0544 15.616 36.9664 21.4016 74.1888 20.0192 111.6672-1.1776 32.1024-7.7312 64-12.5952 95.8976-1.1776 7.7312-3.584 14.848-15.1552 14.7456-71.6288-0.512-143.2064-0.256-219.648-0.256zM651.9808 523.5712V213.3504c7.1168 3.072 12.3392 4.9664 17.152 7.5264 58.0608 31.1808 102.6048 76.2368 136.1408 132.608 4.4544 7.4752 8.6016 13.824-0.1024 22.7328-49.2544 50.432-97.792 101.632-146.5856 152.5248-2.2016-1.7408-4.4032-3.4304-6.6048-5.1712z" fill="#05C46D" p-id="51818"></path><path d="M622.848 422.4512C547.328 345.9072 474.88 272.384 402.0736 198.6048c55.1936-19.1488 113.152-23.1936 172.032-13.1584 48.8448 8.3456 48.7424 9.0112 48.7424 58.2144v178.7904z" fill="#1DCE75" p-id="51819"></path><path d="M500.3264 655.5136h310.3232c-20.2752 45.6704-49.5616 80.9472-85.248 110.7456-18.5344 15.4624-39.168 28.6208-59.6992 41.3696-4.5568 2.816-15.5136 2.304-18.9952-1.1776-49.9712-50.5856-99.1232-101.888-146.3808-150.9376zM368.5888 811.5712c-36.4032-15.1552-66.56-35.7376-91.3408-62.4128-23.0912-24.832-42.6496-52.992-62.8224-80.4352-2.8672-3.8912-2.7648-14.2848 0.3584-17.6128 48.7936-51.712 98.3552-102.8096 147.712-154.0096 2.048 1.4336 4.0448 2.8672 6.0928 4.3008v310.1696z" fill="#05C46D" p-id="51820"></path><path d="M420.7616 405.8112c-73.472 71.7824-146.8928 143.5136-224.8192 219.6992-6.144-29.3376-13.568-54.4768-16.384-80.128-4.7104-43.3664-1.1776-86.6816 11.2128-128.7168 1.6896-5.7344 8.6016-14.1824 13.1584-14.2336 71.6288-0.9216 143.2576-0.6144 214.8864-0.6144 0.6656 1.28 1.3312 2.6624 1.9456 3.9936z" fill="#3CD38E" p-id="51821"></path><path d="M669.1328 220.8768c-4.864-2.6112-10.0864-4.4544-17.152-7.5264v310.2208c2.2016 1.7408 4.4032 3.4304 6.6048 5.1712 39.1168-40.8064 78.1824-81.7152 117.4528-122.368 2.816-19.8656 4.3008-40.1408 4.3008-60.7744 0-10.2912-0.4096-20.48-1.0752-30.6176-29.6448-38.6048-65.9456-70.4-110.1312-94.1056zM214.8352 651.1616c-3.1232 3.2768-3.2256 13.7216-0.3584 17.6128 20.1216 27.392 39.7312 55.552 62.8224 80.4352 8.3968 9.0112 17.4592 17.3056 27.0848 24.9856 14.848 1.536 29.9008 2.3552 45.1584 2.3552 6.4 0 12.7488-0.1536 19.0976-0.4608V501.5552c-2.048-1.4336-4.0448-2.8672-6.0928-4.3008-49.408 51.0976-98.9184 102.1952-147.712 153.9072zM397.6192 605.8496c0 55.808-0.1536 111.872 0.2048 167.936 45.9776-5.12 89.7536-17.4592 130.1504-35.8912-43.2128-43.8272-86.7328-87.8592-130.3552-132.0448zM500.3264 655.5136c20.4288 21.1968 41.2672 42.8544 62.3104 64.6656 31.4368-17.92 60.3648-39.68 86.2208-64.6656H500.3264zM678.4 623.9232a429.67552 429.67552 0 0 0 87.1936-166.0928c-56.0128 54.6816-112.128 109.5168-170.1376 166.144 28.2112 0 55.808-0.0512 82.944-0.0512z" fill="#1DCE75" p-id="51822"></path><path d="M661.76 217.4464c-2.9184-1.2288-6.0928-2.5088-9.7792-4.096v74.24c5.12-22.784 8.448-46.1824 9.7792-70.144zM622.848 373.3504V243.6608c0-49.2032 0.1024-49.8688-48.7424-58.2144-58.88-10.0864-116.8384-6.0416-172.032 13.1584 67.4304 68.352 134.6048 136.4992 204.1344 207.0016 5.9904-10.496 11.52-21.248 16.64-32.256zM241.3568 623.36c44.3904-0.9728 87.1424-8.6528 127.232-22.1184V501.504c-2.048-1.4336-4.0448-2.8672-6.0928-4.3008-40.448 41.9328-80.9472 83.9168-121.1392 126.1568z" fill="#3CD38E" p-id="51823"></path><path d="M402.0736 198.6048c26.5216 26.88 52.992 53.7088 79.5648 80.6912 20.3264-30.4128 36.864-63.488 48.9984-98.7136-43.8784-2.2528-86.9888 3.584-128.5632 18.0224zM368.896 211.3536C307.8144 235.4688 226.2528 318.1568 212.1728 370.176h188.0576a430.336 430.336 0 0 0 60.928-62.72L368.896 211.3536zM180.2752 467.2512a428.288 428.288 0 0 0 177.3568-65.4848c-51.2-0.0512-102.4 0-153.6512 0.6656-4.5568 0.0512-11.4688 8.4992-13.1584 14.2336-4.9664 16.64-8.3968 33.536-10.5472 50.5856z" fill="#48E1AA" p-id="51824"></path></svg>