<?xml version="1.0" standalone="no"?><!DOCTYPE svg PUBLIC "-//W3C//DTD SVG 1.1//EN" "http://www.w3.org/Graphics/SVG/1.1/DTD/svg11.dtd"><svg t="1646653697151" class="icon" viewBox="0 0 1024 1024" version="1.1" xmlns="http://www.w3.org/2000/svg" p-id="51979" xmlns:xlink="http://www.w3.org/1999/xlink" width="128" height="128"><defs><style type="text/css"></style></defs><path d="M508.2112 516.608m-450.816 0a450.816 450.816 0 1 0 901.632 0 450.816 450.816 0 1 0-901.632 0Z" fill="#E9F4FF" p-id="51980"></path><path d="M748.544 644.0448c19.2 19.0464 34.6112 34.304 55.5008 54.9888-6.2976 5.8368-89.344 89.8048-125.9008 126.72-21.3504 21.6064-50.0224 25.7024-77.5168 32.4608-8.6528 2.1504-12.0832-4.352-10.2912-11.9296 7.0656-29.4912 13.5168-58.5728 37.5296-81.3056 41.3184-39.1168 80.5376-80.4864 120.6784-120.9344z" fill="#2595E8" p-id="51981"></path><path d="M633.6 194.2528c10.0352 4.1984 19.0976 5.7344 24.9856 10.8544 29.696 25.7536 59.2384 51.7632 87.1936 79.3088 7.424 7.3216 8.96 20.5312 14.4384 34.1504-36.9664 0-68.7616 0.4608-100.5568-0.4608-5.3248-0.1536-12.5952-5.1712-15.3088-10.0352-5.0176-8.8576-9.8304-19.1488-10.3424-29.0304-1.3312-26.88-0.4096-53.8624-0.4096-84.7872z" fill="#3A9CED" p-id="51982"></path><path d="M829.3376 675.9424c-18.7392-19.712-35.8912-37.7344-53.76-56.5248 6.7584-6.7584 19.9168-22.3232 35.7376-18.5344 20.224 4.7104 31.1808 18.944 37.2224 37.3248 5.888 17.8176-8.7552 28.16-19.2 37.7344zM756.0704 377.1904c0-4.8128-0.512-9.6768-0.8192-15.6672-30.9248 0-60.8256-0.3584-90.6752 0.1024-31.3344 0.4608-52.8384-14.6432-64.2048-42.4448-5.888-14.3872-8.2432-30.7712-9.1648-46.4384-1.4848-24.7808-0.4096-49.664-0.4096-76.0832-85.9648 0-184.7808-0.3072-268.2368 0.4096-9.8816 0.1024-20.8896 4.1472-29.3888 9.472-30.464 19.0976-46.4896 46.592-46.4384 83.5072 0.3072 143.4112 1.4848 286.8224-0.6656 430.1824-0.6656 44.4416 42.8544 92.3136 88.6272 95.8464h0.3072c2.7136 0.2048 149.1456 1.3824 149.1456 1.3824 50.8416 0 69.5296-24.2688 73.6768-28.5184 1.28-1.3312 10.5472-11.3152 22.6816-24.4736l70.4512-74.5984c-2.6624 0.4608-6.912 0.8704-13.8752 0.8704-1.2288 0.1024-2.4576 0.1536-3.6864 0.1536-82.9952 0.1024-181.2992 0.2048-264.2432-0.0512-16.9984-0.0512-29.5424-8.4992-36.7616-23.9104-13.1584-28.3136 7.2192-58.9312 39.68-59.0848 77.4656-0.256 170.2912 0.0512 247.7568-0.2048 15.872-0.0512 31.0784 0.5632 42.9056 13.1072 11.3664 12.0832 13.312 26.7264 11.7248 34.7648 0 0-0.0512 5.5296-2.2016 11.776l73.728-78.08c5.5808-5.4784 9.5744-15.2576 9.6768-23.0912 0.768-63.0272 0.4608-125.952 0.4096-188.928z m-129.2288 149.1968c-39.424 0.1536-78.848 0.0512-118.272 0.0512-39.424 0-94.208 0.1024-133.632-0.0512-28.672-0.1024-46.08-16.0768-46.0288-41.6256 0.0512-25.1904 17.9712-41.7792 46.1824-41.8304 78.848-0.2048 173.056-0.2048 251.904 0 28.2624 0.0512 47.872 18.176 47.36 42.752-0.512 24.4736-19.0976 40.6016-47.5136 40.704z" fill="#2595E8" p-id="51983"></path><path d="M756.0704 377.1904c0-4.8128-0.512-9.6768-0.8192-15.6672-30.9248 0-60.8256-0.3584-90.6752 0.1024-31.3344 0.4608-52.8384-14.6432-64.2048-42.4448-5.888-14.3872-8.2432-30.7712-9.1648-46.4384-1.4848-24.7808-0.4096-49.664-0.4096-76.0832-85.9648 0-184.7808-0.3072-268.2368 0.4096-9.8816 0.1024-20.8896 4.1472-29.3888 9.472-30.464 19.0976-46.4896 46.592-46.4384 83.5072 0.3072 143.4112 1.4848 286.8224-0.6656 430.1824-0.3072 20.8384 9.1648 42.3936 24.0128 59.8528 15.2576 1.5872 30.7712 2.3552 46.4384 2.3552 102.2976 0 211.968-34.0992 287.6416-91.4944-73.216 0.0512-161.792 0.1536-235.008-0.0512-16.9984-0.0512-29.5424-8.4992-36.7616-23.9104-13.1584-28.3136 7.2192-58.9312 39.68-59.0848 77.4656-0.256 170.2912 0.0512 247.7568-0.2048 15.872-0.0512 31.0784 0.5632 42.9056 13.1072 2.8672 3.0208 5.12 6.2464 6.8608 9.4208a450.2528 450.2528 0 0 0 86.528-145.92c0.1024-35.7376 0-71.424-0.0512-107.1104z m-129.2288 149.1968c-39.424 0.1536-78.848 0.0512-118.272 0.0512-39.424 0-94.208 0.1024-133.632-0.0512-28.672-0.1024-46.08-16.0768-46.0288-41.6256 0.0512-25.1904 17.9712-41.7792 46.1824-41.8304 78.848-0.2048 173.056-0.2048 251.904 0 28.2624 0.0512 47.872 18.176 47.36 42.752-0.512 24.4736-19.0976 40.6016-47.5136 40.704z" fill="#3A9CED" p-id="51984"></path><path d="M486.5024 526.4384c-32.1024 0.0512-79.5136 0.1024-111.616-0.0512-28.672-0.1024-46.08-16.0768-46.0288-41.6256 0.0512-25.1904 17.9712-41.7792 46.1824-41.8304 59.392-0.1536 134.0928-0.1536 193.4848-0.0512 21.6064-28.672 39.8848-59.9552 54.272-93.3888-9.6768-7.168-17.2032-17.3056-22.528-30.2592-5.888-14.3872-8.2432-30.7712-9.1648-46.4384-1.4848-24.7808-0.4096-49.664-0.4096-76.0832-85.9648 0-184.7808-0.3072-268.2368 0.4096-9.8816 0.1024-20.8896 4.1472-29.3888 9.472-30.464 19.0976-46.4896 46.592-46.4384 83.5072 0.256 109.6704 0.9728 219.392 0.3584 329.0624 84.0192-10.0864 176.2816-43.1104 239.5136-92.7232zM633.6 194.2528c0 30.976-0.9216 57.9072 0.4608 84.7872 0.3584 7.2704 3.072 14.7456 6.4512 21.7088a450.2784 450.2784 0 0 0 17.6128-96c-5.888-4.864-14.7456-6.4-24.5248-10.496z" fill="#59ADF8" p-id="51985"></path><path d="M506.5216 196.608c-56.6784-0.0512-128.0512-0.0512-183.9616 0.4608-9.8816 0.1024-20.8896 4.1472-29.3888 9.472-30.464 19.0976-46.4896 46.592-46.4384 83.5072 0.1024 46.8992 0.3072 93.7472 0.4096 140.6464 108.544-43.4688 211.6096-127.8464 259.3792-234.0864z" fill="#6BC2FC" p-id="51986"></path></svg>