<?xml version="1.0" standalone="no"?><!DOCTYPE svg PUBLIC "-//W3C//DTD SVG 1.1//EN" "http://www.w3.org/Graphics/SVG/1.1/DTD/svg11.dtd"><svg t="1646784456794" class="icon" viewBox="0 0 1024 1024" version="1.1" xmlns="http://www.w3.org/2000/svg" p-id="17617" xmlns:xlink="http://www.w3.org/1999/xlink" width="128" height="128"><defs><style type="text/css"></style></defs><path d="M512.6656 513.3312m-450.816 0a450.816 450.816 0 1 0 901.632 0 450.816 450.816 0 1 0-901.632 0Z" fill="#E9F4FF" p-id="17618"></path><path d="M494.6944 530.7392c6.2464-22.9888 15.9232-58.4192 21.248-77.5168 0.5632-1.9968 2.2016-4.8128 3.6864-6.2976 52.5824-52.6336 88.7296-88.6272 141.4144-141.2096 0.2048-0.2048 0.512-0.3584 1.2288-0.8192l75.3152 73.1648c-1.4848 1.5872-2.7136 2.8672-3.9424 4.1472-51.5584 51.5584-86.6304 86.528-138.3424 137.9328-2.4576 2.4064-5.4272 4.1984-8.7552 5.12-19.8656 5.632-53.8624 15.0528-76.0832 21.1456-9.6256 2.7136-18.3808-6.0928-15.7696-15.6672z" fill="#3A9CED" p-id="17619"></path><path d="M760.4736 354.6112c-24.9344-24.1664-49.9712-48.384-75.2128-72.8064 1.0752-1.2288 1.8944-2.2016 2.7648-3.1232 12.3392-12.3904 24.6272-24.9344 37.12-37.1712 22.4768-22.016 57.088-20.736 77.6704 2.7136 17.5104 19.9168 16.64 51.9168-2.048 70.656-13.1072 13.2608-26.5216 26.2144-40.2944 39.7312z" fill="#2595E8" p-id="17620"></path><path d="M626.9952 552.6528a63.36 63.36 0 0 1-32.9216 17.5616l-122.88 23.7056c-15.616 3.0208-29.2352-10.9056-25.9584-26.4192l26.624-124.9792c2.6112-12.2368 8.8064-23.4496 17.7664-32.2048l165.0688-160.5632H324.9152c-55.7056 0-100.8128 45.1584-100.8128 100.8128v362.7008c0 55.7056 45.1584 100.8128 100.8128 100.8128h371.456c55.7056 0 100.8128-45.1584 100.8128-100.8128V381.184l-170.1888 171.4688z m-83.9168 158.5664h-193.536c-17.8176 0-32.256-14.4384-32.256-32.256s14.4384-32.256 32.256-32.256h193.536c17.8176 0 32.256 14.4384 32.256 32.256s-14.4384 32.256-32.256 32.256z" fill="#2595E8" p-id="17621"></path><path d="M786.4832 231.5264c-19.712-9.984-44.032-6.8608-61.2864 10.0352-12.4928 12.2368-24.7808 24.7808-37.12 37.1712-0.8704 0.9216-1.6896 1.8944-2.7648 3.1232 25.2416 24.4224 50.2272 48.64 75.2128 72.8064 13.7728-13.5168 27.1872-26.4704 40.3456-39.68 0.9216-0.9216 1.7408-1.8432 2.56-2.816a454.59456 454.59456 0 0 0-16.9472-80.64z" fill="#3A9CED" p-id="17622"></path><path d="M797.2352 381.184l-170.24 171.4688a63.36 63.36 0 0 1-32.9216 17.5616l-122.88 23.7056c-15.616 3.0208-29.2352-10.9056-25.9584-26.4192l26.624-124.9792c2.6112-12.2368 8.8064-23.4496 17.7664-32.2048l165.0688-160.5632H324.9152c-55.7056 0-100.8128 45.1584-100.8128 100.8128v362.7008c0 50.8928 37.7856 92.8768 86.784 99.7376 3.328 0.3072 6.6048 0.6144 9.9328 0.8704 1.3824 0.0512 2.7136 0.2048 4.096 0.2048h62.208c203.6736-14.08 370.0736-163.3792 410.112-358.7584V381.184z m-254.1568 330.0352h-193.536c-17.8176 0-32.256-14.4384-32.256-32.256s14.4384-32.256 32.256-32.256h193.536c17.8176 0 32.256 14.4384 32.256 32.256s-14.4384 32.256-32.256 32.256z" fill="#3A9CED" p-id="17623"></path><path d="M662.2208 304.9472c-0.6656 0.4608-1.024 0.6144-1.2288 0.8192-52.6336 52.5824-88.832 88.576-141.4144 141.2096-1.4848 1.4848-3.1232 4.3008-3.6864 6.2976-5.2736 19.0976-14.9504 54.528-21.248 77.5168-2.6112 9.5744 6.144 18.3296 15.7184 15.7184 6.656-1.8432 14.336-3.9424 22.3744-6.144 66.4576-59.4944 115.1488-138.3936 137.216-227.84-2.56-2.56-5.1712-5.0688-7.7312-7.5776z" fill="#59ADF8" p-id="17624"></path><path d="M224.0512 655.0528c2.7136 0.0512 5.4784 0.1024 8.192 0.1024 83.2 0 161.1264-22.5792 227.9936-61.8496-10.3424-3.328-17.5104-14.08-15.0016-25.8048l26.624-124.9792c2.6112-12.2368 8.8064-23.4496 17.7664-32.2048l165.0688-160.5632H324.9152c-55.7056 0-100.8128 45.1584-100.8128 100.8128v304.4864z" fill="#59ADF8" p-id="17625"></path><path d="M520.4992 249.7536h-195.584c-55.7056 0-100.8128 45.1584-100.8128 100.8128v132.6592c129.4336-30.9248 237.2096-117.7088 296.3968-233.472z" fill="#6BC2FC" p-id="17626"></path></svg>