<?xml version="1.0" standalone="no"?><!DOCTYPE svg PUBLIC "-//W3C//DTD SVG 1.1//EN" "http://www.w3.org/Graphics/SVG/1.1/DTD/svg11.dtd"><svg t="1647084382884" class="icon" viewBox="0 0 1024 1024" version="1.1" xmlns="http://www.w3.org/2000/svg" p-id="2665" xmlns:xlink="http://www.w3.org/1999/xlink" width="128" height="128"><defs><style type="text/css"></style></defs><path d="M389.358933 613.956267c0-138.786133 133.4272-251.665067 297.403734-251.665067 2.6624 0 5.2224 0.3072 7.816533 0.341333-29.013333-119.022933-155.886933-208.9984-308.4288-208.9984-174.08 0-315.016533 116.736-315.016533 260.8128a248.046933 248.046933 0 0 0 123.630933 207.1552l2.8672 1.774934-30.5152 94.344533 113.8688-57.412267 5.3248 1.467734a378.88 378.88 0 0 0 99.669333 13.346133c4.164267 0 8.2944-0.2048 12.458667-0.375467a213.674667 213.674667 0 0 1-9.079467-60.791466z m106.3936-331.605334a42.461867 42.461867 0 1 1-44.066133 42.427734 43.178667 43.178667 0 0 1 44.100267-42.3936z m-219.2384 84.7872a42.461867 42.461867 0 1 1 44.373334-42.427733 43.451733 43.451733 0 0 1-44.373334 42.3936z" fill="#32DF72" p-id="2666"></path><path d="M952.832 613.956267c0-121.685333-119.0912-220.433067-266.0352-220.433067s-266.24 98.6112-266.24 220.433067 119.227733 220.433067 266.24 220.433066a317.917867 317.917867 0 0 0 84.1728-11.229866l4.573867-1.297067 96.119466 48.571733-25.7024-79.7696 2.4576-1.467733a209.851733 209.851733 0 0 0 104.413867-175.240533z m-358.741333-40.072534a35.84 35.84 0 1 1 37.546666-35.805866 36.795733 36.795733 0 0 1-37.546666 35.771733z m185.1392 0a35.84 35.84 0 1 1 37.546666-35.805866 36.7616 36.7616 0 0 1-37.546666 35.771733z" fill="#E8E8E8" p-id="2667"></path></svg>