<?xml version="1.0" standalone="no"?><!DOCTYPE svg PUBLIC "-//W3C//DTD SVG 1.1//EN" "http://www.w3.org/Graphics/SVG/1.1/DTD/svg11.dtd"><svg t="1646652163636" class="icon" viewBox="0 0 1024 1024" version="1.1" xmlns="http://www.w3.org/2000/svg" p-id="51171" xmlns:xlink="http://www.w3.org/1999/xlink" width="128" height="128"><defs><style type="text/css"></style></defs><path d="M504.32 513.1264m-450.816 0a450.816 450.816 0 1 0 901.632 0 450.816 450.816 0 1 0-901.632 0Z" fill="#E9ECFF" p-id="51172"></path><path d="M453.4784 720.0256c-30.2592-0.1024-57.9584-4.1472-85.0944-12.4928a21.6576 21.6576 0 0 0-13.824 0.3072c-26.2144 9.7792-52.1216 20.2752-78.1824 30.3616-15.616 6.0416-22.5792 0.6144-20.0704-16.0768 3.3792-22.3232 6.9632-44.5952 11.1616-66.7136 1.0752-5.7344-0.256-9.2672-4.096-13.1584-36.4032-36.9152-59.5456-80.9984-69.4272-131.8912-20.5824-106.0352 25.7536-212.0192 117.4016-269.1072 93.952-58.5216 216.576-50.3296 301.8752 20.224 106.0352 87.7056 124.0064 243.5072 43.8784 351.8976-50.8928 68.9152-120.4224 103.0144-203.6224 106.6496z m-0.4096-189.7984h0.5632c11.6736 0.0512 21.1968-9.3184 21.2992-20.992 0-1.9968 0.0512-3.584 0.0512-4.352 0.1536-21.76 7.9872-25.9584 25.7024-34.8672 15.7696-7.936 30.3616-19.9168 36.096-37.1712 11.264-33.8432 5.2736-66.304-19.8144-91.5968-26.368-26.624-65.8944-34.3552-100.864-20.6848-23.1936 9.0624-39.168 27.648-47.616 50.3808-5.2736 14.1824 4.2496 29.5424 19.2 31.9488l0.6144 0.1024c10.752 1.7408 21.248-3.8912 26.0608-13.7216 7.2192-14.7968 21.6064-32.9216 48.8448-26.5216 15.8208 3.7376 29.6448 17.8176 32.2048 33.5872 2.9696 18.432-1.6896 27.4944-19.456 37.9904-2.2528 1.3312-4.608 2.56-6.8608 3.9424-21.9136 13.5168-34.816 32.9728-36.864 58.624-0.1024 1.536-0.1536 6.2976-0.1536 11.9808-0.1536 11.7248 9.2672 21.248 20.992 21.3504z m3.8912 24.0128c-15.7184 0.0512-28.7744 12.9536-28.6208 28.2624 0.1536 15.104 13.0048 27.9552 28.0576 28.0576 14.7456 0.1024 28.2112-13.1584 28.2624-27.8528 0.0512-14.8992-13.2096-28.5184-27.6992-28.4672z" fill="#757BF2" p-id="51173"></path><path d="M531.6096 755.9168c81.7152-22.5792 143.872-68.352 185.7024-139.7248 41.728-71.2704 51.0464-147.8144 30.72-229.9904 28.7232 21.504 49.3568 46.7968 63.7952 76.6976 41.0112 84.8384 25.1904 179.8144-40.704 247.7568-4.5056 4.608-6.4512 8.7552-5.0176 15.3088 2.3552 10.8544 3.9424 21.9136 5.4272 32.9216 1.5872 11.3152-2.4064 14.3872-12.8 10.0864-12.1856-5.0176-24.1664-10.5472-36.5056-15.1552-3.6352-1.3312-8.8064-1.5872-12.1856 0-49.7664 23.3984-101.0176 25.7024-153.5488 11.4688-3.1232-0.8192-6.1952-1.8432-9.1648-3.0208-4.6592-1.6896-9.216-3.6864-15.7184-6.3488z" fill="#6C6CEA" p-id="51174"></path><path d="M259.7376 700.5696c68.4032-17.0496 130.6112-49.7664 182.6816-94.0544-8.2432-4.9664-13.9264-13.9776-14.0288-24.0128-0.1536-15.3088 12.9024-28.2112 28.6208-28.2624 9.8816-0.0512 19.2512 6.3488 24.1152 15.104 74.4448-80.384 120.0128-188.0064 120.0128-306.2272 0-3.7376-0.0512-7.424-0.1536-11.1616-84.48-61.6448-200.0384-66.5088-289.536-10.752-91.648 57.088-137.984 163.072-117.4016 269.1072 9.8816 50.8416 32.9728 94.9248 69.4272 131.8912 3.84 3.8912 5.1712 7.3728 4.096 13.1584-2.9184 15.0528-5.4272 30.1056-7.8336 45.2096z m108.7488-329.6256c8.448-22.7328 24.4224-41.3184 47.616-50.3808 34.9696-13.6704 74.496-5.9392 100.864 20.6848 25.0368 25.2928 31.0784 57.7536 19.8144 91.5968-5.7344 17.2544-20.3264 29.184-36.096 37.1712-17.664 8.9088-25.5488 13.1072-25.7024 34.8672 0 0.8192 0 2.4064-0.0512 4.352a21.18656 21.18656 0 0 1-21.2992 20.992h-0.5632a21.16096 21.16096 0 0 1-21.0432-21.2992c0.0512-5.6832 0.1024-10.4448 0.1536-11.9808 2.048-25.6512 14.9504-45.1584 36.864-58.624 2.2528-1.3824 4.608-2.6112 6.8608-3.9424 17.8176-10.4448 22.4768-19.5584 19.456-37.9904-2.56-15.7696-16.3328-29.8496-32.2048-33.5872-27.2384-6.4-41.6256 11.7248-48.8448 26.5216-4.7616 9.8304-15.2576 15.4624-26.0608 13.7216l-0.6144-0.1024c-14.8992-2.4576-24.4224-17.8176-19.1488-32z" fill="#8486F8" p-id="51175"></path><path d="M377.6 398.848c-8.704-6.0416-13.056-17.3056-9.1136-27.904 8.448-22.7328 24.4224-41.3184 47.616-50.3808 6.1952-2.4064 12.544-4.1472 18.8928-5.2224a448.21504 448.21504 0 0 0 41.5232-111.36c-56.4736-6.144-114.8928 6.0416-165.0688 37.3248-91.648 57.088-137.984 163.072-117.4016 269.1072 0.9728 4.9664 2.0992 9.8304 3.2768 14.6432A452.11648 452.11648 0 0 0 377.6 398.848z" fill="#8D92F8" p-id="51176"></path></svg>