<?xml version="1.0" standalone="no"?><!DOCTYPE svg PUBLIC "-//W3C//DTD SVG 1.1//EN" "http://www.w3.org/Graphics/SVG/1.1/DTD/svg11.dtd"><svg t="1646656282825" class="icon" viewBox="0 0 1024 1024" version="1.1" xmlns="http://www.w3.org/2000/svg" p-id="52941" xmlns:xlink="http://www.w3.org/1999/xlink" width="128" height="128"><defs><style type="text/css"></style></defs><path d="M515.84 514.4064m-450.816 0a450.816 450.816 0 1 0 901.632 0 450.816 450.816 0 1 0-901.632 0Z" fill="#FFE3DB" p-id="52942"></path><path d="M459.9296 498.9952c-19.8656-12.1856-35.2256-26.1632-47.0016-43.8784-42.496-64.2048-27.4944-165.2224 49.152-204.288 47.872-24.3712 109.1072-11.7248 144.4352 31.488 38.5024 47.1552 45.7728 99.0208 21.1968 155.2384-9.8304 22.4256-23.3472 41.6256-43.6224 55.6544-1.536 1.0752-2.9184 2.3552-4.352 3.6352-0.3584 0.3584-0.5632 0.8704-1.4336 2.4064 4.5568 1.1264 8.8576 1.9968 13.056 3.1744 52.6336 15.0528 96.6656 42.24 127.0784 89.0368 16.9472 26.112 27.5968 54.7328 32.4608 85.1968 3.5328 21.9648 5.2736 44.2368 6.5024 66.4576 1.0752 19.0976-8.6528 30.208-28.928 36.1984-25.0368 7.424-50.8416 8.3456-76.5952 8.96-99.1744 2.4064-198.3488 3.2256-297.4208-1.536-15.4112-0.768-30.976-3.6864-45.9776-7.4752-22.016-5.5296-29.6448-17.4592-28.9792-39.9872 0.8704-29.3376 3.6864-58.368 12.032-86.6816 21.4016-72.6528 68.0448-120.9856 139.4688-145.5616 4.5568-1.5872 9.1648-3.1232 13.824-4.4544 4.2496-1.1776 8.6528-2.048 15.104-3.584z" fill="#F23D4F" p-id="52943"></path><path d="M373.5552 275.456c-41.472 71.3216-39.2704 141.7216 4.8128 212.0704-93.0816 45.6192-134.2976 125.5424-145.8176 225.28-17.2544 0.4096-34.304 1.0752-49.8176-6.7584-5.2736-2.6624-11.4688-9.2672-12.032-14.592-1.8432-18.0224-3.5328-36.5056-1.3312-54.3744 6.1952-50.432 28.672-92.9792 67.6352-126.1568 18.6368-15.872 39.8848-27.136 63.3344-34.2016 2.56-0.768 5.0688-1.5872 9.0112-2.816-27.3408-15.104-45.0048-36.7104-53.4528-65.536-8.4992-29.0304-5.4784-57.0368 8.7552-83.5072 22.3232-41.5744 67.584-61.9008 108.9024-49.408z" fill="#FC4956" p-id="52944"></path><path d="M653.824 487.4752c45.312-70.912 45.056-141.9264 4.6592-214.272 20.992-6.3488 41.4208-4.864 60.8768 4.864 36.4032 18.2272 56.4224 48.4352 59.4432 88.6272 3.1232 41.5232-11.776 75.776-46.2848 100.4032-3.2256 2.304-6.9632 3.9424-11.2128 6.3488 2.048 1.024 3.4304 2.048 5.0176 2.56 76.6464 25.7536 119.6032 80.5888 134.6048 158.3616 3.2768 17.1008 2.4064 35.1744 1.9968 52.7872-0.3072 11.776-8.3968 19.456-19.6608 21.6064-14.08 2.7136-28.4672 3.7888-43.6224 5.632-10.4448-101.5296-52.3264-180.992-145.8176-226.9184z" fill="#F23D4F" p-id="52945"></path><path d="M722.3808 597.9648c-1.28-2.1504-2.56-4.352-3.9936-6.5024-30.4128-46.848-74.4448-74.0352-127.0784-89.0368-4.1984-1.1776-8.4992-2.0992-13.056-3.1744 0.8704-1.536 1.0752-2.0992 1.4336-2.4064 1.3824-1.2288 2.7648-2.56 4.352-3.6352 20.2752-14.08 33.792-33.2288 43.6224-55.6544 24.6272-56.1664 17.3056-108.0832-21.1968-155.2384-35.2768-43.2128-96.5632-55.8592-144.4352-31.488-76.5952 39.0656-91.5968 140.0832-49.152 204.288 11.7248 17.7664 27.136 31.6928 47.0016 43.8784-6.4512 1.4848-10.8544 2.3552-15.1552 3.584-4.6592 1.3312-9.216 2.8672-13.824 4.4544-71.424 24.576-118.1184 72.9088-139.4688 145.5616-8.3456 28.3648-11.1616 57.344-12.032 86.6816-0.6656 22.5792 6.9632 34.4576 28.9792 39.9872 6.656 1.6896 13.4656 3.1232 20.2752 4.352 9.4208 0.5632 18.8928 0.9216 28.416 0.9216 150.3232 0.1024 283.392-73.472 365.312-186.5728z" fill="#FC4956" p-id="52946"></path><path d="M726.3232 476.0576c-1.536-0.512-2.9696-1.4848-5.0176-2.56 4.2496-2.3552 7.9872-4.0448 11.2128-6.3488 34.5088-24.6272 49.408-58.9312 46.2848-100.4032-3.0208-40.192-23.0912-70.4-59.4432-88.6272-19.456-9.728-39.8848-11.2128-60.8768-4.864 40.448 72.3456 40.6528 143.3088-4.6592 214.272 39.2704 19.3024 69.376 44.4928 91.904 74.752 11.6736-19.8656 21.9136-40.6528 30.5152-62.3104-14.6944-9.6256-31.2832-17.664-49.92-23.9104z" fill="#FC4956" p-id="52947"></path><path d="M373.5552 275.456c-41.3184-12.4928-86.5792 7.8336-108.9536 49.4592-14.2336 26.4704-17.2544 54.4768-8.7552 83.5072 8.448 28.8256 26.1632 50.432 53.4528 65.536-3.9424 1.2288-6.4512 2.048-9.0112 2.816-23.4496 7.0656-44.6976 18.3296-63.3344 34.2016-34.56 29.44-56.1152 66.2528-64.8704 109.3632 20.1728 2.7648 40.704 4.1984 61.6448 4.1984 6.5536 0 13.056-0.1536 19.5584-0.4608 22.272-58.368 61.5936-105.4208 125.0304-136.5504-44.032-70.3488-46.2336-140.7488-4.7616-212.0704z" fill="#FF5C64" p-id="52948"></path><path d="M430.9504 507.0848c-59.8016 20.5824-102.144 57.8048-126.9248 111.9744 149.76-23.4496 275.0464-120.6272 337.6128-253.184-1.8944-29.2864-13.6192-57.1392-35.1744-83.5584-35.2768-43.2128-96.5632-55.8592-144.4352-31.488-76.5952 39.0656-91.5968 140.0832-49.152 204.288 11.7248 17.7664 27.136 31.6928 47.0016 43.8784-6.4512 1.4848-10.8544 2.3552-15.1552 3.584-4.608 1.3312-9.216 2.9184-13.7728 4.5056z" fill="#FF5C64" p-id="52949"></path><path d="M658.4832 273.2544c3.7376 6.656 7.0144 13.312 10.0352 19.968 2.0992-7.68 3.9936-15.4624 5.7344-23.296-5.2224 0.6144-10.496 1.7408-15.7696 3.328z" fill="#FF696C" p-id="52950"></path><path d="M264.6016 324.9152c-14.2336 26.4704-17.2544 54.4768-8.7552 83.5072 3.3792 11.4688 8.2432 21.76 14.592 30.976 26.4192-9.3184 51.712-20.992 75.5712-34.8672-6.6048-42.8032 2.3552-85.76 27.5456-129.0752-41.3184-12.4928-86.5792 7.8336-108.9536 49.4592zM462.08 250.8288c-48.9472 24.9344-72.704 75.1616-72.448 124.928a452.83328 452.83328 0 0 0 121.7536-137.1136c-16.9472 0.3584-33.8432 4.3008-49.3056 12.1856z" fill="#FF716E" p-id="52951"></path></svg>