<?xml version="1.0" standalone="no"?><!DOCTYPE svg PUBLIC "-//W3C//DTD SVG 1.1//EN" "http://www.w3.org/Graphics/SVG/1.1/DTD/svg11.dtd"><svg t="1646785303712" class="icon" viewBox="0 0 1024 1024" version="1.1" xmlns="http://www.w3.org/2000/svg" p-id="17939" xmlns:xlink="http://www.w3.org/1999/xlink" width="128" height="128"><defs><style type="text/css"></style></defs><path d="M509.9008 514.7136m-450.816 0a450.816 450.816 0 1 0 901.632 0 450.816 450.816 0 1 0-901.632 0Z" fill="#FFF1DC" p-id="17940"></path><path d="M759.0912 278.272c-58.4192-1.6384-171.4688-10.752-227.584-55.5008-12.7488-10.1888-30.464-11.264-44.2368-2.5088-36.0448 22.8864-108.9024 60.5184-203.264 64.6656-20.4288 0.9216-36.608 17.5104-36.608 37.9392 0 143.36 0.1536 139.6224 0.1536 177.3568 0 40.1408-45.9776 203.2128 246.9376 329.728 9.4208 4.096 20.1728 4.1984 29.696 0.256 221.0816-91.0336 271.6672-186.9824 271.6672-298.0864V316.2112c0.0512-20.5312-16.2304-37.376-36.7616-37.9392z m-109.056 208.384l-130.9696 130.4064a36.6848 36.6848 0 0 1-25.9072 10.7008c-9.3696 0-18.7392-3.5328-25.856-10.6496l-75.9296-75.3664a36.77184 36.77184 0 0 1-0.2048-51.968 36.77184 36.77184 0 0 1 51.968-0.2048l50.0224 49.6128 105.1136-104.6528c14.3872-14.2848 37.632-14.2848 51.968 0.1024 14.2336 14.4384 14.1824 37.6832-0.2048 52.0192z" fill="#FC7032" p-id="17941"></path><path d="M775.7824 338.8416c0-19.6608-1.4336-39.0144-4.0448-57.9584-3.9424-1.536-8.192-2.4576-12.6464-2.6112-58.4192-1.6384-171.4688-10.752-227.584-55.5008-12.7488-10.1888-30.464-11.264-44.2368-2.5088-36.0448 22.8864-108.9024 60.5184-203.264 64.6656-20.4288 0.9216-36.608 17.5104-36.608 37.9392 0 143.36 0.1536 139.6224 0.1536 177.3568 0 33.4848-31.8976 152.4224 127.2832 264.3968 223.6928-13.3632 400.9472-198.8096 400.9472-425.7792zM391.1168 489.7792a36.77184 36.77184 0 0 1 51.968-0.2048l50.0224 49.6128 105.1136-104.6528c14.3872-14.2848 37.632-14.2848 51.968 0.1024a36.72576 36.72576 0 0 1-0.1024 51.968l-130.9696 130.4064a36.6848 36.6848 0 0 1-25.9072 10.7008c-9.3696 0-18.7392-3.5328-25.856-10.6496L391.424 541.696c-14.4896-14.2336-14.592-37.4784-0.3072-51.9168z" fill="#FF7E3E" p-id="17942"></path><path d="M487.2704 220.2624c-36.0448 22.8864-108.9024 60.5184-203.264 64.6656-20.4288 0.9216-35.9936 17.5104-36.608 37.9392-4.0448 134.1952-4.1472 138.6496-4.1472 176.384 0 17.92-4.864 61.3376 11.1104 114.1248a424.1408 424.1408 0 0 0 165.7856-42.9568l-28.8768-28.672a36.77184 36.77184 0 0 1-0.2048-51.968 36.77184 36.77184 0 0 1 51.968-0.2048l41.8304 41.5232c84.9408-62.464 145.8176-155.648 166.4-263.168-44.8512-7.8848-90.2144-21.6064-119.808-45.1584-12.6976-10.1376-30.4128-11.264-44.1856-2.5088z" fill="#FF9552" p-id="17943"></path><path d="M512.5632 214.8352c-8.6016-1.1264-17.5616 0.5632-25.2928 5.4784-36.0448 22.8864-108.9024 60.5184-203.264 64.6656-20.4288 0.9216-36.608 17.5104-36.608 37.9392 0 65.3312-3.5328 99.1232-3.4816 121.1904 117.9136-35.2768 217.8048-119.0912 268.6464-229.2736z" fill="#FFA56A" p-id="17944"></path></svg>