<?xml version="1.0" standalone="no"?><!DOCTYPE svg PUBLIC "-//W3C//DTD SVG 1.1//EN" "http://www.w3.org/Graphics/SVG/1.1/DTD/svg11.dtd"><svg t="1648372614234" class="icon" viewBox="0 0 1024 1024" version="1.1" xmlns="http://www.w3.org/2000/svg" p-id="3302" xmlns:xlink="http://www.w3.org/1999/xlink" width="128" height="128"><defs><style type="text/css">@font-face { font-family: feedback-iconfont; src: url("//at.alicdn.com/t/font_1031158_u69w8yhxdu.woff2?t=1630033759944") format("woff2"), url("//at.alicdn.com/t/font_1031158_u69w8yhxdu.woff?t=1630033759944") format("woff"), url("//at.alicdn.com/t/font_1031158_u69w8yhxdu.ttf?t=1630033759944") format("truetype"); }
</style></defs><path d="M362.24 287.0784h262.2464a112.64 112.64 0 0 1 112.64 112.64v262.2464a72.6016 72.6016 0 0 0 74.9568-81.6128V294.0928a73.5232 73.5232 0 0 0-81.92-81.92H443.904a72.6016 72.6016 0 0 0-81.664 74.9056z" p-id="3303" fill="#aec1d4"></path><path d="M580.2496 362.0352H293.9904a73.5232 73.5232 0 0 0-81.92 81.92v286.208a73.5232 73.5232 0 0 0 81.92 81.92h286.2592a73.5232 73.5232 0 0 0 81.92-81.92V443.904a73.5232 73.5232 0 0 0-81.92-81.8688z" p-id="3304" fill="#aec1d4"></path></svg>