<?xml version="1.0" standalone="no"?><!DOCTYPE svg PUBLIC "-//W3C//DTD SVG 1.1//EN" "http://www.w3.org/Graphics/SVG/1.1/DTD/svg11.dtd"><svg t="1648372328023" class="icon" viewBox="0 0 1024 1024" version="1.1" xmlns="http://www.w3.org/2000/svg" p-id="3111" xmlns:xlink="http://www.w3.org/1999/xlink" width="128" height="128"><defs><style type="text/css">@font-face { font-family: feedback-iconfont; src: url("//at.alicdn.com/t/font_1031158_u69w8yhxdu.woff2?t=1630033759944") format("woff2"), url("//at.alicdn.com/t/font_1031158_u69w8yhxdu.woff?t=1630033759944") format("woff"), url("//at.alicdn.com/t/font_1031158_u69w8yhxdu.ttf?t=1630033759944") format("truetype"); }
</style></defs><path d="M371.2 825.5488a31.8464 31.8464 0 0 1-22.6304-9.3696 32.0512 32.0512 0 0 1 0-45.2608L607.5904 512 348.5696 252.9792a32.0512 32.0512 0 0 1 0-45.2608 32.0512 32.0512 0 0 1 45.2608 0l281.6 281.6a32.0512 32.0512 0 0 1 9.4208 22.6816 32 32 0 0 1-9.4208 22.6304l-281.6 281.6a31.8464 31.8464 0 0 1-22.6304 9.3184z" p-id="3112" fill="#999999"></path></svg>